<svg width="99" height="94" viewBox="0 0 99 94" fill="none" xmlns="http://www.w3.org/2000/svg">
<path d="M88 27.5C88 23.9 90.6667 23 92 23H60.5V79H89L89.5 78C88.3 77.2 88 75.6667 88 75C88 72.2 90.3333 71.1667 91.5 71H95.5C96.6667 70.8333 99 69.8 99 67C99 64.2 96.6667 63.1667 95.5 63H91.5C90.3333 62.8333 88 61.8 88 59C88 56.2 90.3333 55.1667 91.5 55H94.5C96 55 99 54.2 99 51C99 47.8 96.3333 47 95 47H91.5C90.3333 46.8333 88 45.8 88 43C88 40.2 90.3333 39.1667 91.5 39H95C98.2 39 99 36.3333 99 35C99 31.8 96.3333 31 95 31H92C89.2 31 88.1667 28.6667 88 27.5Z" fill="#D9D9D9"/>
<path d="M65 0C82.6 2 90.3333 16.1667 92 23H86.5V77L89.5 78C83.9 89.6 71.1667 93.5 65.5 94H36.5H0V0H65Z" fill="#D9D9D9"/>
</svg>
