<svg width="347" height="347" viewBox="0 0 347 347" fill="none" xmlns="http://www.w3.org/2000/svg">
<path d="M312.231 276.552H289.245V276.726H312.231V276.552Z" fill="#EBEBEB"/>
<path d="M229.867 278.44H223.836V278.613H229.867V278.44Z" fill="#EBEBEB"/>
<path d="M288.551 270.112H275.233V270.285H288.551V270.112Z" fill="#EBEBEB"/>
<path d="M66.3811 271.278H36.4072V271.451H66.3811V271.278Z" fill="#EBEBEB"/>
<path d="M76.9577 271.278H72.5646V271.451H76.9577V271.278Z" fill="#EBEBEB"/>
<path d="M156.254 274.206H91.2402V274.38H156.254V274.206Z" fill="#EBEBEB"/>
<path d="M164.478 234.433H30.4805C29.4295 234.433 28.4215 234.016 27.6784 233.273C26.9352 232.529 26.5177 231.521 26.5177 230.471V42.0981C26.5269 41.0531 26.9484 40.0541 27.6906 39.3184C28.4328 38.5827 29.4355 38.17 30.4805 38.17H164.478C165.529 38.17 166.537 38.5875 167.28 39.3307C168.023 40.0739 168.441 41.0818 168.441 42.1328V230.471C168.441 231.521 168.023 232.529 167.28 233.273C166.537 234.016 165.529 234.433 164.478 234.433ZM30.4805 38.3088C29.4761 38.3107 28.5133 38.7105 27.8031 39.4207C27.0929 40.1309 26.6931 41.0937 26.6912 42.0981V230.471C26.6931 231.475 27.0929 232.438 27.8031 233.148C28.5133 233.858 29.4761 234.258 30.4805 234.26H164.478C165.482 234.258 166.445 233.858 167.155 233.148C167.866 232.438 168.265 231.475 168.267 230.471V42.0981C168.265 41.0937 167.866 40.1309 167.155 39.4207C166.445 38.7105 165.482 38.3107 164.478 38.3088H30.4805Z" fill="#EBEBEB"/>
<path d="M314.597 234.433H180.586C179.535 234.431 178.528 234.013 177.786 233.271C177.043 232.528 176.625 231.521 176.623 230.471V42.0981C176.634 41.0537 177.056 40.0557 177.798 39.3204C178.54 38.5851 179.541 38.1718 180.586 38.17H314.597C315.64 38.1737 316.639 38.588 317.378 39.3233C318.117 40.0586 318.537 41.0555 318.546 42.0981V230.471C318.546 231.519 318.13 232.525 317.39 233.268C316.65 234.01 315.646 234.43 314.597 234.433ZM180.586 38.3088C179.581 38.3107 178.619 38.7105 177.908 39.4207C177.198 40.1309 176.798 41.0937 176.796 42.0981V230.471C176.798 231.475 177.198 232.438 177.908 233.148C178.619 233.858 179.581 234.258 180.586 234.26H314.597C315.602 234.258 316.564 233.858 317.274 233.148C317.985 232.438 318.385 231.475 318.386 230.471V42.0981C318.385 41.0937 317.985 40.1309 317.274 39.4207C316.564 38.7105 315.602 38.3107 314.597 38.3088H180.586Z" fill="#EBEBEB"/>
<path d="M347 265.386H0V265.559H347V265.386Z" fill="#EBEBEB"/>
<path d="M175.561 202.183H115.593V258.057H175.561V202.183Z" fill="#E6E6E6"/>
<path d="M125.135 259.813H117.48V264.699H125.135V259.813Z" fill="#E0E0E0"/>
<path d="M297.33 202.183H175.561V257.516H297.33V202.183Z" fill="#E6E6E6"/>
<path d="M306.623 198.068H298.968V264.699H306.623V198.068Z" fill="#E6E6E6"/>
<path d="M234.281 206.59H181.495V254.934H234.281V206.59Z" fill="#F5F5F5"/>
<path d="M190.406 254.934H204.501L209.581 206.59H195.493L190.406 254.934Z" fill="#FAFAFA"/>
<path d="M208.11 254.934H210.914L215.994 206.59H213.19L208.11 254.934Z" fill="#FAFAFA"/>
<path d="M174.09 206.59H121.304V254.934H174.09V206.59Z" fill="#F5F5F5"/>
<path d="M295.047 206.59H242.261V254.934H295.047V206.59Z" fill="#F5F5F5"/>
<path d="M297.032 198.068H113.413V264.692H117.494V260.944H294.95V264.678H299.038V198.054L297.032 198.068ZM117.494 204.098H173.59V227.243H117.494V204.098ZM117.494 254.934V230.686H173.59V254.934H117.494ZM234.281 254.934H177.664V204.098H234.274L234.281 254.934ZM294.978 254.934H238.368V230.686H294.95L294.978 254.934ZM294.978 227.243H238.368V204.098H294.95L294.978 227.243Z" fill="#F0F0F0"/>
<path d="M148.565 212.322C148.565 212.809 148.42 213.284 148.15 213.688C147.88 214.092 147.496 214.407 147.046 214.593C146.597 214.779 146.103 214.827 145.626 214.731C145.149 214.636 144.711 214.401 144.368 214.057C144.025 213.713 143.791 213.274 143.697 212.797C143.603 212.32 143.653 211.826 143.84 211.377C144.027 210.929 144.343 210.545 144.748 210.276C145.153 210.007 145.629 209.864 146.115 209.866C146.437 209.866 146.756 209.929 147.054 210.053C147.352 210.176 147.622 210.357 147.85 210.586C148.077 210.814 148.257 211.085 148.38 211.383C148.503 211.681 148.565 212 148.565 212.322Z" fill="#EBEBEB"/>
<path d="M146.115 214.772C145.646 214.771 145.187 214.636 144.792 214.383C144.397 214.13 144.083 213.769 143.887 213.343C143.735 213.675 143.659 214.038 143.665 214.404C143.672 214.77 143.76 215.13 143.923 215.457C144.087 215.784 144.322 216.071 144.611 216.296C144.9 216.52 145.235 216.677 145.593 216.755C145.95 216.833 146.321 216.83 146.677 216.746C147.033 216.662 147.366 216.499 147.651 216.27C147.936 216.04 148.166 215.75 148.324 215.42C148.482 215.09 148.564 214.729 148.565 214.363C148.565 214.01 148.487 213.661 148.336 213.343C148.141 213.768 147.828 214.129 147.434 214.382C147.041 214.636 146.583 214.771 146.115 214.772Z" fill="#E0E0E0"/>
<path d="M146.115 243.268C147.468 243.268 148.565 242.171 148.565 240.818C148.565 239.465 147.468 238.368 146.115 238.368C144.762 238.368 143.665 239.465 143.665 240.818C143.665 242.171 144.762 243.268 146.115 243.268Z" fill="#EBEBEB"/>
<path d="M146.115 243.268C145.646 243.267 145.187 243.132 144.792 242.879C144.397 242.625 144.083 242.264 143.887 241.838C143.735 242.171 143.659 242.534 143.665 242.9C143.672 243.266 143.76 243.625 143.923 243.953C144.087 244.28 144.322 244.567 144.611 244.791C144.9 245.016 145.235 245.173 145.593 245.251C145.95 245.329 146.321 245.326 146.677 245.242C147.033 245.158 147.366 244.995 147.651 244.766C147.936 244.536 148.166 244.246 148.324 243.916C148.482 243.586 148.564 243.224 148.565 242.858C148.565 242.506 148.487 242.157 148.336 241.838C148.141 242.264 147.828 242.625 147.434 242.878C147.041 243.131 146.583 243.267 146.115 243.268Z" fill="#E0E0E0"/>
<path d="M272.305 212.322C272.305 212.808 272.161 213.283 271.891 213.687C271.621 214.091 271.237 214.406 270.788 214.592C270.339 214.778 269.845 214.827 269.369 214.732C268.892 214.637 268.454 214.403 268.111 214.06C267.767 213.716 267.533 213.278 267.438 212.802C267.344 212.325 267.392 211.831 267.578 211.382C267.764 210.933 268.079 210.55 268.483 210.28C268.887 210.01 269.362 209.866 269.848 209.866C270.171 209.865 270.491 209.928 270.789 210.051C271.088 210.174 271.359 210.355 271.587 210.583C271.816 210.811 271.996 211.083 272.12 211.381C272.243 211.68 272.306 211.999 272.305 212.322Z" fill="#EBEBEB"/>
<path d="M269.848 214.772C269.38 214.771 268.922 214.636 268.528 214.382C268.135 214.129 267.822 213.768 267.627 213.343C267.476 213.661 267.398 214.01 267.398 214.363C267.394 214.732 267.473 215.098 267.629 215.433C267.786 215.768 268.016 216.063 268.302 216.297C268.589 216.53 268.924 216.696 269.283 216.782C269.643 216.868 270.017 216.872 270.378 216.793C270.739 216.714 271.078 216.555 271.369 216.327C271.66 216.099 271.896 215.809 272.059 215.477C272.222 215.146 272.309 214.781 272.311 214.412C272.314 214.042 272.234 213.677 272.076 213.343C271.88 213.769 271.566 214.13 271.171 214.383C270.776 214.636 270.317 214.771 269.848 214.772Z" fill="#E0E0E0"/>
<path d="M229.298 232.171C229.298 232.655 229.154 233.129 228.885 233.532C228.616 233.935 228.233 234.249 227.785 234.434C227.338 234.62 226.845 234.668 226.37 234.574C225.895 234.479 225.458 234.246 225.115 233.903C224.773 233.56 224.54 233.124 224.445 232.649C224.35 232.173 224.399 231.681 224.584 231.233C224.77 230.786 225.084 230.403 225.487 230.134C225.89 229.865 226.363 229.721 226.848 229.721C227.497 229.721 228.121 229.979 228.58 230.438C229.039 230.898 229.298 231.521 229.298 232.171Z" fill="#EBEBEB"/>
<path d="M226.848 234.628C226.38 234.626 225.922 234.491 225.528 234.238C225.135 233.984 224.822 233.623 224.627 233.198C224.476 233.517 224.397 233.865 224.398 234.218C224.398 234.584 224.48 234.945 224.638 235.275C224.796 235.605 225.026 235.896 225.311 236.125C225.597 236.355 225.929 236.518 226.286 236.602C226.642 236.686 227.012 236.689 227.37 236.611C227.727 236.533 228.063 236.376 228.352 236.151C228.641 235.926 228.876 235.64 229.039 235.312C229.203 234.985 229.291 234.625 229.297 234.259C229.304 233.893 229.228 233.531 229.076 233.198C228.879 233.624 228.565 233.985 228.171 234.238C227.776 234.492 227.317 234.627 226.848 234.628Z" fill="#E0E0E0"/>
<path d="M269.848 243.268C271.201 243.268 272.298 242.171 272.298 240.818C272.298 239.465 271.201 238.368 269.848 238.368C268.495 238.368 267.398 239.465 267.398 240.818C267.398 242.171 268.495 243.268 269.848 243.268Z" fill="#EBEBEB"/>
<path d="M269.848 243.268C269.38 243.267 268.922 243.131 268.528 242.878C268.135 242.625 267.822 242.264 267.627 241.838C267.476 242.157 267.398 242.506 267.398 242.858C267.394 243.228 267.473 243.594 267.629 243.929C267.786 244.264 268.016 244.559 268.302 244.792C268.589 245.026 268.924 245.192 269.283 245.278C269.643 245.364 270.017 245.368 270.378 245.289C270.739 245.21 271.078 245.051 271.369 244.823C271.66 244.595 271.896 244.305 272.059 243.973C272.222 243.641 272.309 243.277 272.311 242.907C272.314 242.538 272.234 242.172 272.076 241.838C271.88 242.264 271.566 242.625 271.171 242.879C270.776 243.132 270.317 243.267 269.848 243.268Z" fill="#E0E0E0"/>
<path opacity="0.1" d="M93.0376 53.7295H46.151V123.608H93.0376V53.7295Z" fill="black"/>
<path d="M91.1361 51.828H44.2495V121.707H91.1361V51.828Z" fill="#EBEBEB"/>
<path d="M88.8528 57.7339H48.4343V117.973H88.8528V57.7339Z" fill="#F5F5F5"/>
<path d="M78.7135 80.6983C78.7135 82.3029 78.2377 83.8714 77.3462 85.2056C76.4548 86.5397 75.1877 87.5796 73.7053 88.1936C72.2229 88.8077 70.5916 88.9683 69.0179 88.6553C67.4441 88.3422 65.9986 87.5696 64.864 86.435C63.7294 85.3004 62.9567 83.8548 62.6437 82.2811C62.3306 80.7073 62.4913 79.0761 63.1053 77.5937C63.7194 76.1112 64.7592 74.8442 66.0934 73.9527C67.4275 73.0613 68.9961 72.5855 70.6006 72.5855C71.6663 72.5845 72.7217 72.7938 73.7064 73.2012C74.6911 73.6085 75.5858 74.2061 76.3393 74.9596C77.0928 75.7131 77.6904 76.6079 78.0978 77.5926C78.5052 78.5773 78.7144 79.6327 78.7135 80.6983Z" fill="#E0E0E0"/>
<path d="M61.3565 102.15L68.1161 94.0648L70.6006 102.15H61.3565Z" fill="#EBEBEB"/>
<path d="M55.6449 66.6587C49.975 75.8959 54.0765 87.3677 60.5029 94.9045C61.4954 96.0635 63.161 94.384 62.1755 93.232C56.4153 86.5002 52.5775 76.1318 57.6645 67.8455C58.4695 66.5477 56.4222 65.361 55.6241 66.6587H55.6449Z" fill="#EBEBEB"/>
<path d="M83.6548 66.0966L79.3242 70.5312L83.6548 74.2372L87.5967 70.1703L83.6548 66.0966Z" fill="#EBEBEB"/>
<path d="M91.1361 51.828L93.0376 53.7296V123.608H46.151L44.2495 121.707H91.1361V51.828Z" fill="#E0E0E0"/>
<path d="M37.5315 196.721C37.5315 190.815 44.4715 185.812 54.0834 184.104L44.5964 172.764H78.1236L68.6297 184.104C78.2346 185.812 85.1885 190.815 85.1885 196.721C85.1885 203.231 76.7564 250.812 65.6385 261.263L69.1085 265.427H53.5768L57.0468 261.263C45.9636 250.812 37.5315 203.231 37.5315 196.721Z" fill="#F0F0F0"/>
<path d="M74.2025 245.51C70.205 242.609 67.4499 236.592 67.4499 229.617C67.4499 219.818 72.8908 211.864 79.5949 211.864C80.7236 211.881 81.8384 212.117 82.8775 212.558C80.9551 222.545 77.9362 235.266 74.2025 245.51Z" fill="#E0E0E0"/>
<path d="M44.8046 187.2C49.2671 189.823 52.4386 196.222 52.4386 203.661C52.4386 212.78 47.7333 220.317 41.6816 221.289C39.0791 209.685 37.5176 199.49 37.5176 196.721C37.5315 192.981 40.3214 189.608 44.8046 187.2Z" fill="#E6E6E6"/>
<path d="M286.913 131.791C286.734 132.207 286.475 132.584 286.15 132.901C285.978 133.081 285.784 133.239 285.574 133.373C285.03 133.735 284.388 133.922 283.735 133.907C283.276 133.841 282.85 133.63 282.52 133.304C282.19 132.978 281.974 132.554 281.903 132.096C281.833 131.664 281.892 131.221 282.072 130.823C282.252 130.424 282.546 130.087 282.916 129.854L283.277 130.444C283.026 130.605 282.827 130.834 282.704 131.105C282.581 131.376 282.539 131.677 282.583 131.971C282.687 132.547 283.207 133.199 283.749 133.22C284.289 133.212 284.816 133.046 285.263 132.743C285.711 132.439 286.06 132.012 286.268 131.513C286.465 131.061 286.513 130.558 286.405 130.077C286.298 129.595 286.041 129.16 285.671 128.834C285.365 128.507 284.986 128.258 284.565 128.106C284.144 127.954 283.693 127.904 283.249 127.96C282.5 128.122 281.794 128.443 281.179 128.9C280.564 129.357 280.054 129.941 279.682 130.611C277.954 133.449 278.072 136.774 278.467 139.064C278.745 140.562 279.185 142.026 279.779 143.429C279.897 143.721 280.022 144.012 280.154 144.297C280.64 145.4 281.181 146.469 281.708 147.524C283.145 150.39 284.623 153.339 285.06 156.726C285.102 157.031 285.137 157.351 285.158 157.67C285.178 157.989 285.192 158.274 285.199 158.579C285.199 158.78 285.199 158.989 285.199 159.19C285.234 166.657 281.639 173.451 275.726 177.109L275.58 176.373C281.014 172.903 284.436 166.38 284.498 159.433C284.498 159.356 284.498 159.273 284.498 159.19C284.498 158.961 284.498 158.725 284.498 158.496C284.498 158.267 284.498 157.975 284.457 157.718C284.457 157.566 284.457 157.413 284.415 157.26C284.359 156.668 284.266 156.079 284.137 155.498C283.568 152.791 282.354 150.369 281.084 147.864C280.348 146.392 279.599 144.9 279.002 143.332C278.724 142.638 278.474 141.944 278.259 141.187C278.071 140.537 277.918 139.877 277.801 139.209C277.197 135.739 277.649 132.672 279.099 130.278C279.529 129.518 280.117 128.858 280.823 128.345C281.53 127.831 282.338 127.475 283.194 127.3C284.015 127.188 284.85 127.38 285.539 127.842C285.748 127.972 285.942 128.126 286.115 128.3C286.142 128.319 286.168 128.339 286.192 128.362C286.651 128.789 286.967 129.348 287.096 129.962C287.225 130.576 287.162 131.215 286.913 131.791Z" fill="#E6E6E6"/>
<path d="M284.394 157.267C283.194 154.894 280.848 152.673 279.175 152.305L279.321 151.611C281.209 152.021 283.707 154.387 285.012 156.941L284.394 157.267Z" fill="#E6E6E6"/>
<path d="M285.13 159.412H284.436C284.416 158.604 284.568 157.8 284.881 157.055C285.195 156.31 285.663 155.639 286.254 155.088L286.726 155.602C286.205 156.087 285.793 156.678 285.518 157.335C285.243 157.992 285.11 158.7 285.13 159.412Z" fill="#E6E6E6"/>
<path d="M278.988 143.318C277.655 141.419 276.172 139.63 274.553 137.967L275.06 137.488C276.696 139.186 278.202 141.005 279.564 142.929L278.988 143.318Z" fill="#E6E6E6"/>
<path d="M280.401 141.912L279.467 144.064L280.104 144.341L281.037 142.188L280.401 141.912Z" fill="#E6E6E6"/>
<path d="M288.128 134.22C287.088 134.108 286.091 133.741 285.227 133.151L285.616 132.575C286.386 133.103 287.276 133.432 288.204 133.533L288.128 134.22Z" fill="#E6E6E6"/>
<path d="M286.115 125.941L285.284 128.473L285.943 128.69L286.774 126.157L286.115 125.941Z" fill="#E6E6E6"/>
<path d="M283.582 136.663C283.844 136.525 284.142 136.474 284.434 136.518C284.726 136.562 284.997 136.697 285.206 136.905C285.65 137.426 285.47 138.224 285.206 138.863C284.575 140.445 282.507 144.935 280.348 143.027C278.294 141.292 281.937 137.412 283.582 136.663Z" fill="#E6E6E6"/>
<path d="M276.316 137.287C276.49 137.525 276.583 137.812 276.583 138.106C276.583 138.4 276.49 138.687 276.316 138.925C275.858 139.439 275.046 139.376 274.38 139.216C272.721 138.821 267.974 137.426 269.522 135.052C270.972 132.734 275.338 135.76 276.316 137.287Z" fill="#E6E6E6"/>
<path d="M281.271 149.842C279.307 146.934 274.956 145.171 271.063 145.678C269.237 145.927 268.981 148.683 269.543 150.154C270.105 151.625 271.569 152.833 273.256 153.568C275.015 154.388 277.012 154.544 278.877 154.006C280.619 153.409 282.229 151.25 281.271 149.842Z" fill="#E6E6E6"/>
<path d="M293.971 149.703C291.889 149.418 289.696 149.293 287.795 150.161C285.893 151.028 284.422 153.187 285.019 155.199C285.236 155.918 285.699 156.538 286.327 156.949C286.955 157.36 287.709 157.537 288.454 157.448C290.002 157.288 291.327 156.289 292.452 155.213C293.242 154.549 293.84 153.687 294.187 152.715C294.457 151.722 294.992 149.842 293.971 149.703Z" fill="#E6E6E6"/>
<path d="M286.039 127.543C285.658 126.789 285.494 125.943 285.567 125.101C285.611 124.681 285.766 124.281 286.018 123.943C286.27 123.605 286.608 123.341 286.997 123.178C287.394 123.039 287.829 123.06 288.211 123.238C288.592 123.415 288.889 123.735 289.037 124.129C289.148 124.6 289.142 125.092 289.021 125.561C288.9 126.03 288.668 126.462 288.343 126.822C288.067 127.148 287.704 127.389 287.296 127.517C286.888 127.645 286.452 127.654 286.039 127.543Z" fill="#E6E6E6"/>
<path d="M294.055 136.08C293.457 136.612 292.725 136.969 291.938 137.113C291.151 137.257 290.34 137.181 289.593 136.894C288.847 136.608 288.193 136.121 287.704 135.488C287.216 134.854 286.911 134.099 286.823 133.304C287.425 132.831 288.137 132.52 288.892 132.399C289.647 132.277 290.421 132.35 291.14 132.61C291.874 132.903 292.524 133.374 293.032 133.979C293.541 134.584 293.892 135.306 294.055 136.08Z" fill="#E6E6E6"/>
<path d="M285.928 196.749L287.413 198.526H280.806L282.298 196.749C279.21 193.841 276.615 184.202 275.192 177.109L275.046 176.373C274.545 174.06 274.197 171.716 274.005 169.357C274.005 166.845 276.955 164.721 281.028 163.999L277.003 159.19H291.202L287.177 163.999C291.251 164.693 294.201 166.845 294.201 169.357C294.201 172.112 290.626 192.301 285.928 196.749Z" fill="#F0F0F0"/>
<path d="M170.155 294.055C244.47 294.055 304.715 290.537 304.715 286.199C304.715 281.86 244.47 278.343 170.155 278.343C95.8397 278.343 35.5953 281.86 35.5953 286.199C35.5953 290.537 95.8397 294.055 170.155 294.055Z" fill="#F5F5F5"/>
<path d="M237.938 235.842H171.113C169.36 235.867 167.622 235.524 166.011 234.836C164.399 234.148 162.95 233.129 161.757 231.846C160.563 230.563 159.652 229.044 159.082 227.387C158.512 225.73 158.296 223.971 158.447 222.226L169.621 62.5016C169.921 58.8264 171.581 55.3952 174.276 52.8785C176.971 50.3618 180.507 48.9405 184.195 48.8922H251.02C252.772 48.8663 254.509 49.2081 256.121 49.8956C257.733 50.5831 259.182 51.601 260.376 52.8835C261.569 54.1661 262.48 55.6848 263.051 57.3415C263.621 58.9982 263.837 60.7561 263.685 62.5016L252.512 222.226C252.212 225.902 250.552 229.334 247.857 231.851C245.162 234.369 241.626 235.792 237.938 235.842Z" fill="#4582A4"/>
<path d="M234.468 235.842H167.643C165.89 235.867 164.152 235.524 162.541 234.836C160.929 234.148 159.48 233.129 158.287 231.846C157.093 230.563 156.182 229.044 155.612 227.387C155.042 225.73 154.826 223.971 154.977 222.226L166.151 62.5016C166.451 58.8264 168.111 55.3952 170.806 52.8785C173.501 50.3618 177.037 48.9405 180.725 48.8922H247.55C249.302 48.8663 251.039 49.2081 252.651 49.8956C254.263 50.5831 255.712 51.601 256.906 52.8835C258.099 54.1661 259.01 55.6848 259.581 57.3415C260.151 58.9982 260.367 60.7561 260.215 62.5016L249.042 222.226C248.742 225.902 247.082 229.334 244.387 231.851C241.692 234.369 238.156 235.792 234.468 235.842Z" fill="#263238"/>
<path d="M247.321 52.05H229.971C229.409 52.0589 228.867 52.259 228.434 52.6173C228.002 52.9756 227.704 53.4707 227.59 54.021L227.486 54.5692C227.211 55.9147 226.484 57.1258 225.427 58.0018C224.369 58.8777 223.044 59.366 221.671 59.3856H205.139C203.825 59.407 202.553 58.9165 201.594 58.0177C200.634 57.119 200.062 55.8824 199.997 54.5692V54.021C199.968 53.4883 199.737 52.9868 199.349 52.62C198.962 52.2533 198.448 52.0492 197.915 52.05H180.565C177.726 52.0905 175.003 53.187 172.929 55.1257C170.854 57.0644 169.576 59.7063 169.343 62.5363L158.17 222.26C158.053 223.606 158.22 224.96 158.659 226.237C159.098 227.514 159.8 228.684 160.719 229.673C161.639 230.661 162.755 231.446 163.997 231.977C165.238 232.508 166.577 232.772 167.927 232.754H234.752C237.593 232.713 240.316 231.616 242.391 229.675C244.466 227.735 245.743 225.092 245.974 222.26L257.148 62.5363C257.265 61.1857 257.097 59.8254 256.653 58.5442C256.21 57.2629 255.501 56.0895 254.574 55.1002C253.647 54.1109 252.522 53.328 251.272 52.8025C250.023 52.277 248.676 52.0206 247.321 52.05Z" fill="#4582A4"/>
<path opacity="0.8" d="M257.078 62.5085L245.912 222.233C245.678 225.063 244.398 227.705 242.322 229.644C240.246 231.582 237.523 232.679 234.683 232.719H167.858C166.508 232.74 165.169 232.477 163.927 231.947C162.686 231.418 161.569 230.633 160.65 229.645C159.731 228.656 159.029 227.485 158.591 226.209C158.153 224.932 157.988 223.577 158.107 222.233L169.274 62.5085C169.513 59.6834 170.794 57.0483 172.868 55.1153C174.942 53.1824 177.661 52.0898 180.495 52.0499H197.845C198.38 52.0492 198.894 52.2542 199.282 52.6225C199.67 52.9907 199.901 53.4939 199.927 54.0278V54.5691C199.985 55.8885 200.554 57.1335 201.514 58.0404C202.474 58.9472 203.75 59.4446 205.07 59.4271H221.58C222.959 59.4065 224.288 58.9125 225.346 58.028C226.404 57.1435 227.125 55.9223 227.389 54.5691L227.5 54.0278C227.615 53.4635 227.923 52.957 228.372 52.5958C228.82 52.2347 229.381 52.0416 229.957 52.0499H247.307C248.655 52.0298 249.992 52.292 251.233 52.8198C252.473 53.3475 253.59 54.129 254.51 55.1141C255.43 56.0992 256.134 57.266 256.577 58.5395C257.019 59.813 257.19 61.165 257.078 62.5085Z" fill="white"/>
<path d="M247.251 203.037L245.912 222.233C245.678 225.063 244.398 227.705 242.322 229.644C240.246 231.582 237.523 232.679 234.683 232.719H167.858C166.508 232.74 165.169 232.477 163.927 231.947C162.686 231.418 161.569 230.633 160.65 229.645C159.731 228.656 159.029 227.486 158.591 226.209C158.153 224.932 157.988 223.577 158.107 222.233L159.446 203.037H247.251Z" fill="#263238"/>
<path opacity="0.5" d="M247.251 203.037L245.912 222.233C245.678 225.063 244.398 227.705 242.322 229.644C240.246 231.582 237.523 232.679 234.683 232.719H167.858C166.508 232.74 165.169 232.477 163.927 231.947C162.686 231.418 161.569 230.633 160.65 229.645C159.731 228.656 159.029 227.486 158.591 226.209C158.153 224.932 157.988 223.577 158.107 222.233L159.446 203.037H247.251Z" fill="white"/>
<g opacity="0.7">
<path d="M209.741 53.7849C209.713 54.1381 209.557 54.4688 209.301 54.7135C209.044 54.9582 208.707 55.0995 208.353 55.1105C208.182 55.1141 208.012 55.0816 207.854 55.015C207.697 54.9485 207.555 54.8494 207.438 54.7243C207.322 54.5991 207.233 54.4507 207.177 54.2889C207.122 54.127 207.102 53.9553 207.117 53.7849C207.145 53.4317 207.301 53.101 207.558 52.8564C207.814 52.6117 208.151 52.4703 208.505 52.4594C208.676 52.4557 208.846 52.4883 209.004 52.5548C209.161 52.6214 209.303 52.7205 209.42 52.8456C209.536 52.9707 209.625 53.1191 209.681 53.281C209.736 53.4429 209.756 53.6146 209.741 53.7849Z" fill="black"/>
<path d="M219.248 52.4594H214.696C214.336 52.4633 213.991 52.6014 213.728 52.8466C213.465 53.0918 213.303 53.4264 213.273 53.7849C213.259 53.955 213.28 54.1263 213.336 54.2877C213.391 54.4491 213.48 54.597 213.597 54.7219C213.713 54.8468 213.854 54.9459 214.011 55.0128C214.168 55.0797 214.338 55.113 214.508 55.1104H219.061C219.415 55.0995 219.753 54.9581 220.009 54.7135C220.265 54.4688 220.422 54.1381 220.449 53.7849C220.464 53.6175 220.445 53.4487 220.392 53.2892C220.338 53.1298 220.253 52.9831 220.14 52.8585C220.027 52.7339 219.889 52.6341 219.736 52.5654C219.583 52.4967 219.417 52.4606 219.248 52.4594Z" fill="black"/>
</g>
<path d="M176.769 59.33H178.171L178.268 57.9211H176.866L176.769 59.33Z" fill="#4582A4"/>
<path d="M179.677 57.9212L179.579 59.33H180.981L181.085 57.9212L181.183 56.5193H179.774L179.677 57.9212Z" fill="#4582A4"/>
<path d="M182.682 55.1105L182.584 56.5193L182.487 57.9212L182.39 59.33H183.792L183.896 57.9212L183.993 56.5193L184.09 55.1105H182.682Z" fill="#4582A4"/>
<path d="M243.108 55.2076L243.039 56.2139H242.345L242.206 58.2959H242.9L242.831 59.33H249.014L249.299 55.2076H243.108ZM245.676 58.2959H243.594L243.74 56.2139H245.822L245.676 58.2959Z" fill="#4582A4"/>
<path d="M180.752 134.858H180.28C180.205 134.859 180.131 134.845 180.062 134.815C179.993 134.786 179.931 134.742 179.88 134.687C179.829 134.632 179.79 134.567 179.765 134.496C179.741 134.425 179.732 134.35 179.739 134.275L180.433 124.33C180.514 123.38 180.945 122.493 181.643 121.843C182.34 121.193 183.255 120.825 184.208 120.811H194.146C194.222 120.81 194.296 120.825 194.365 120.854C194.434 120.884 194.496 120.927 194.547 120.982C194.598 121.037 194.637 121.102 194.661 121.173C194.686 121.244 194.695 121.32 194.688 121.394V121.859C194.677 122.018 194.607 122.166 194.491 122.274C194.375 122.383 194.222 122.443 194.063 122.442H184.09C183.581 122.455 183.094 122.655 182.722 123.003C182.35 123.351 182.118 123.823 182.071 124.33L181.377 134.275C181.363 134.432 181.292 134.579 181.176 134.686C181.061 134.794 180.91 134.855 180.752 134.858Z" fill="#4582A4"/>
<path d="M218.45 175.901L218.485 175.429C218.497 175.273 218.567 175.126 218.681 175.018C218.795 174.911 218.946 174.849 219.103 174.846H229.02C229.53 174.835 230.019 174.636 230.393 174.288C230.766 173.94 230.999 173.467 231.046 172.959L231.74 163.014C231.753 162.856 231.824 162.708 231.939 162.6C232.055 162.492 232.207 162.432 232.365 162.431H232.83C232.905 162.429 232.98 162.444 233.049 162.473C233.119 162.503 233.181 162.546 233.233 162.601C233.285 162.656 233.324 162.721 233.349 162.792C233.374 162.863 233.384 162.938 233.378 163.014L232.684 172.959C232.607 173.91 232.178 174.797 231.481 175.449C230.784 176.101 229.87 176.47 228.916 176.484H218.992C218.917 176.484 218.843 176.469 218.774 176.439C218.706 176.41 218.644 176.366 218.593 176.311C218.543 176.256 218.504 176.192 218.479 176.121C218.454 176.051 218.445 175.976 218.45 175.901Z" fill="#4582A4"/>
<path d="M234.787 134.858H234.315C234.24 134.859 234.166 134.845 234.097 134.815C234.028 134.786 233.966 134.742 233.914 134.687C233.863 134.632 233.824 134.567 233.8 134.496C233.776 134.425 233.767 134.35 233.774 134.275L234.468 124.406C234.506 124.012 234.418 123.617 234.218 123.275C234.06 123.019 233.838 122.808 233.574 122.663C233.31 122.518 233.013 122.444 232.712 122.449H222.774C222.699 122.45 222.625 122.434 222.557 122.405C222.488 122.375 222.427 122.331 222.376 122.276C222.325 122.222 222.286 122.157 222.261 122.086C222.237 122.016 222.227 121.941 222.233 121.866L222.267 121.394C222.28 121.237 222.35 121.089 222.466 120.981C222.582 120.873 222.734 120.813 222.892 120.812H232.698C233.55 120.789 234.38 121.081 235.03 121.63C235.409 121.966 235.705 122.385 235.893 122.855C236.081 123.325 236.156 123.833 236.113 124.337L235.419 134.275C235.405 134.433 235.332 134.581 235.216 134.689C235.099 134.797 234.946 134.857 234.787 134.858Z" fill="#4582A4"/>
<path d="M180.308 176.484C179.802 176.491 179.302 176.38 178.846 176.159C178.391 175.939 177.993 175.615 177.685 175.214C177.184 174.525 176.954 173.675 177.039 172.827L177.733 163.014C177.747 162.856 177.818 162.71 177.934 162.602C178.049 162.495 178.2 162.434 178.358 162.431H178.83C178.905 162.43 178.979 162.446 179.047 162.475C179.116 162.505 179.177 162.549 179.228 162.604C179.279 162.658 179.318 162.723 179.343 162.794C179.367 162.864 179.377 162.939 179.371 163.014L178.677 172.896C178.638 173.288 178.726 173.682 178.927 174.02C179.084 174.276 179.305 174.486 179.568 174.631C179.83 174.776 180.126 174.85 180.426 174.846H190.364C190.439 174.845 190.514 174.86 190.584 174.889C190.653 174.918 190.715 174.962 190.767 175.017C190.819 175.072 190.858 175.137 190.883 175.208C190.908 175.279 190.918 175.354 190.912 175.429V175.901C190.899 176.058 190.827 176.205 190.712 176.313C190.597 176.42 190.446 176.481 190.288 176.484H180.308Z" fill="#4582A4"/>
<path d="M189.74 190.51C189.534 190.735 189.283 190.913 189.003 191.033C188.723 191.153 188.42 191.211 188.116 191.204C187.248 191.204 186.665 190.892 185.832 189.941C185.47 189.913 185.116 189.813 184.793 189.647C184.469 189.481 184.182 189.252 183.948 188.973C183.714 188.694 183.538 188.372 183.43 188.025C183.322 187.677 183.285 187.312 183.32 186.95C183.388 186.107 183.778 185.322 184.411 184.761C185.044 184.199 185.869 183.905 186.714 183.938C187.116 183.907 187.519 183.964 187.897 184.105C188.274 184.246 188.617 184.467 188.9 184.754C189.183 185.041 189.401 185.386 189.537 185.765C189.674 186.144 189.726 186.548 189.691 186.95C189.648 187.6 189.406 188.222 188.999 188.732C188.593 189.242 188.04 189.615 187.415 189.802C187.506 189.927 187.625 190.028 187.762 190.098C187.9 190.168 188.052 190.205 188.206 190.204C188.39 190.203 188.571 190.165 188.74 190.091C188.908 190.017 189.059 189.909 189.184 189.774L189.74 190.51ZM186.374 188.837C186.879 188.843 187.367 188.651 187.732 188.302C188.098 187.953 188.313 187.475 188.331 186.97C188.364 186.733 188.344 186.491 188.273 186.262C188.201 186.032 188.081 185.822 187.919 185.644C187.758 185.467 187.559 185.327 187.338 185.235C187.116 185.143 186.877 185.1 186.637 185.111C186.133 185.105 185.647 185.296 185.281 185.643C184.916 185.99 184.7 186.467 184.68 186.97C184.646 187.209 184.665 187.451 184.736 187.681C184.807 187.912 184.927 188.123 185.089 188.301C185.25 188.48 185.449 188.62 185.671 188.713C185.894 188.805 186.133 188.848 186.374 188.837Z" fill="#263238"/>
<path d="M194.223 189.885L193.21 188.261H191.967L191.856 189.885H190.51L190.919 184.063H193.439C194.993 184.063 195.909 184.868 195.819 186.145C195.799 186.546 195.664 186.934 195.429 187.26C195.193 187.587 194.869 187.838 194.494 187.984L195.666 189.858L194.223 189.885ZM193.286 185.159H192.189L192.044 187.193H193.147C193.966 187.193 194.41 186.804 194.459 186.172C194.507 185.541 194.112 185.159 193.286 185.159Z" fill="#263238"/>
<path d="M198.824 186.971C198.886 186.129 199.273 185.345 199.902 184.783C200.531 184.221 201.354 183.926 202.197 183.959C202.639 183.933 203.08 184.014 203.485 184.194C203.889 184.373 204.245 184.647 204.522 184.993L203.599 185.791C203.438 185.575 203.228 185.4 202.987 185.279C202.746 185.159 202.48 185.096 202.211 185.097C201.701 185.082 201.205 185.269 200.832 185.617C200.459 185.965 200.239 186.447 200.219 186.957C200.186 187.198 200.206 187.444 200.28 187.677C200.353 187.91 200.477 188.123 200.643 188.302C200.81 188.481 201.013 188.62 201.24 188.71C201.467 188.801 201.711 188.839 201.954 188.824C202.241 188.823 202.525 188.761 202.786 188.641C203.047 188.521 203.279 188.347 203.467 188.13L204.272 188.928C203.958 189.269 203.575 189.539 203.147 189.719C202.719 189.899 202.258 189.984 201.794 189.969C201.394 189.998 200.993 189.94 200.617 189.8C200.241 189.659 199.901 189.439 199.618 189.154C199.336 188.869 199.119 188.526 198.982 188.149C198.845 187.772 198.791 187.37 198.824 186.971Z" fill="#263238"/>
<path d="M204.806 186.971C204.874 186.127 205.265 185.343 205.897 184.782C206.53 184.22 207.355 183.925 208.2 183.959C208.602 183.928 209.006 183.985 209.383 184.126C209.761 184.267 210.103 184.488 210.386 184.775C210.67 185.062 210.887 185.406 211.024 185.786C211.16 186.165 211.213 186.569 211.177 186.971C211.111 187.815 210.721 188.601 210.089 189.164C209.456 189.727 208.63 190.022 207.784 189.989C207.381 190.02 206.977 189.963 206.599 189.822C206.221 189.68 205.878 189.458 205.594 189.171C205.311 188.883 205.094 188.538 204.958 188.158C204.821 187.778 204.77 187.373 204.806 186.971ZM209.817 186.971C209.85 186.733 209.83 186.491 209.759 186.262C209.688 186.032 209.567 185.822 209.406 185.644C209.244 185.467 209.045 185.327 208.824 185.235C208.602 185.143 208.363 185.1 208.124 185.111C207.619 185.105 207.133 185.296 206.767 185.643C206.402 185.991 206.186 186.467 206.167 186.971C206.133 187.209 206.152 187.452 206.222 187.682C206.293 187.912 206.413 188.123 206.575 188.301C206.737 188.48 206.936 188.62 207.158 188.713C207.38 188.805 207.62 188.848 207.86 188.837C208.365 188.843 208.853 188.651 209.218 188.302C209.584 187.953 209.799 187.476 209.817 186.971Z" fill="#263238"/>
<path d="M212.399 184.063H215.05C216.951 184.063 218.18 185.208 218.055 186.97C217.93 188.733 216.549 189.885 214.64 189.885H211.996L212.399 184.063ZM214.654 188.782C214.908 188.802 215.163 188.77 215.405 188.689C215.646 188.608 215.869 188.479 216.059 188.31C216.25 188.141 216.404 187.935 216.513 187.705C216.622 187.475 216.684 187.225 216.695 186.97C216.726 186.727 216.701 186.48 216.623 186.248C216.544 186.016 216.413 185.804 216.241 185.63C216.068 185.456 215.858 185.324 215.626 185.244C215.394 185.163 215.147 185.137 214.904 185.166H213.676L213.419 188.782H214.654Z" fill="#263238"/>
<path d="M223.468 188.803L223.392 189.885H218.881L219.29 184.063H223.69L223.614 185.145H220.553L220.463 186.408H223.17L223.093 187.456H220.387L220.296 188.803H223.468Z" fill="#263238"/>
<path d="M254.642 97.3196H166.602L168.677 67.6372H256.718L254.642 97.3196Z" fill="#4582A4"/>
<path opacity="0.2" d="M158.288 221.671C158.177 223.033 158.354 224.404 158.807 225.694C159.26 226.984 159.979 228.165 160.918 229.159L254.455 54.2708C253.543 53.3641 252.46 52.6475 251.268 52.1626C250.077 51.6777 248.801 51.4342 247.515 51.4462H180.683C177.843 51.49 175.122 52.5885 173.048 54.528C170.973 56.4676 169.695 59.1094 169.461 61.9395L158.288 221.671Z" fill="white"/>
<path d="M190.35 72.882L189.016 92.0457L189.709 92.0938L191.042 72.9302L190.35 72.882Z" fill="#E0E0E0"/>
<path d="M212.305 72.8795L210.971 92.0431L211.664 92.0913L212.997 72.9277L212.305 72.8795Z" fill="#E0E0E0"/>
<path d="M234.225 72.8666L232.895 92.0304L233.588 92.0784L234.918 72.9146L234.225 72.8666Z" fill="#E0E0E0"/>
<path d="M184.986 125.211L184.861 127.071H186.721L186.853 125.211H184.986Z" fill="#263238"/>
<path d="M186.853 125.211L186.721 127.071H188.588L188.713 125.211H186.853Z" fill="#263238"/>
<path d="M188.712 125.211L188.588 127.071H190.447L190.579 125.211H188.712Z" fill="#263238"/>
<path d="M190.579 125.211L190.448 127.071H192.314L192.439 125.211H190.579Z" fill="#263238"/>
<path d="M192.439 125.211L192.314 127.071H194.174L194.306 125.211H192.439Z" fill="#263238"/>
<path d="M194.306 125.211L194.174 127.071H196.041L196.173 125.211H194.306Z" fill="#263238"/>
<path d="M196.173 125.211L196.041 127.071H197.901L198.033 125.211H196.173Z" fill="#263238"/>
<path d="M203.627 125.211L203.495 127.071H205.355L205.486 125.211H203.627Z" fill="#263238"/>
<path d="M209.213 125.211L209.081 127.071H210.948L211.08 125.211H209.213Z" fill="#263238"/>
<path d="M211.08 125.211L210.948 127.071H212.808L212.94 125.211H211.08Z" fill="#263238"/>
<path d="M212.94 125.211L212.808 127.071H214.675L214.807 125.211H212.94Z" fill="#263238"/>
<path d="M214.807 125.211L214.675 127.071H216.535L216.667 125.211H214.807Z" fill="#263238"/>
<path d="M218.534 125.211L218.402 127.071H220.262L220.394 125.211H218.534Z" fill="#263238"/>
<path d="M220.394 125.211L220.262 127.071H222.129L222.26 125.211H220.394Z" fill="#263238"/>
<path d="M222.26 125.211L222.129 127.071H223.995L224.12 125.211H222.26Z" fill="#263238"/>
<path d="M224.12 125.211L223.995 127.071H225.855L225.987 125.211H224.12Z" fill="#263238"/>
<path d="M225.987 125.211L225.855 127.071H227.722L227.847 125.211H225.987Z" fill="#263238"/>
<path d="M227.847 125.211L227.722 127.071H229.582L229.714 125.211H227.847Z" fill="#263238"/>
<path d="M229.714 125.211L229.582 127.071H231.449L231.581 125.211H229.714Z" fill="#263238"/>
<path d="M184.861 127.071L184.729 128.938H186.589L186.721 127.071H184.861Z" fill="#263238"/>
<path d="M196.041 127.071L195.909 128.938H197.769L197.901 127.071H196.041Z" fill="#263238"/>
<path d="M201.628 127.071L201.503 128.938H203.363L203.495 127.071H201.628Z" fill="#263238"/>
<path d="M210.948 127.071L210.816 128.938H212.683L212.808 127.071H210.948Z" fill="#263238"/>
<path d="M212.808 127.071L212.683 128.938H214.543L214.675 127.071H212.808Z" fill="#263238"/>
<path d="M214.675 127.071L214.543 128.938H216.41L216.535 127.071H214.675Z" fill="#263238"/>
<path d="M218.402 127.071L218.27 128.938H220.137L220.262 127.071H218.402Z" fill="#263238"/>
<path d="M229.582 127.071L229.45 128.938H231.317L231.449 127.071H229.582Z" fill="#263238"/>
<path d="M184.729 128.938L184.597 130.798H186.464L186.589 128.938H184.729Z" fill="#263238"/>
<path d="M188.456 128.938L188.324 130.798H190.191L190.316 128.938H188.456Z" fill="#263238"/>
<path d="M190.316 128.938L190.191 130.798H192.051L192.182 128.938H190.316Z" fill="#263238"/>
<path d="M192.182 128.938L192.051 130.798H193.917L194.042 128.938H192.182Z" fill="#263238"/>
<path d="M195.909 128.938L195.777 130.798H197.644L197.769 128.938H195.909Z" fill="#263238"/>
<path d="M199.636 128.938L199.504 130.798H201.371L201.503 128.938H199.636Z" fill="#263238"/>
<path d="M205.23 128.938L205.098 130.798H206.958L207.09 128.938H205.23Z" fill="#263238"/>
<path d="M210.816 128.938L210.685 130.798H212.551L212.683 128.938H210.816Z" fill="#263238"/>
<path d="M218.27 128.938L218.138 130.798H220.005L220.137 128.938H218.27Z" fill="#263238"/>
<path d="M221.997 128.938L221.865 130.798H223.732L223.864 128.938H221.997Z" fill="#263238"/>
<path d="M223.864 128.938L223.732 130.798H225.599L225.724 128.938H223.864Z" fill="#263238"/>
<path d="M225.723 128.938L225.599 130.798H227.458L227.59 128.938H225.723Z" fill="#263238"/>
<path d="M229.45 128.938L229.325 130.798H231.185L231.317 128.938H229.45Z" fill="#263238"/>
<path d="M184.597 130.798L184.465 132.665H186.332L186.464 130.798H184.597Z" fill="#263238"/>
<path d="M188.324 130.798L188.192 132.665H190.059L190.191 130.798H188.324Z" fill="#263238"/>
<path d="M190.191 130.798L190.059 132.665H191.919L192.051 130.798H190.191Z" fill="#263238"/>
<path d="M192.051 130.798L191.919 132.665H193.786L193.917 130.798H192.051Z" fill="#263238"/>
<path d="M195.777 130.798L195.646 132.665H197.512L197.644 130.798H195.777Z" fill="#263238"/>
<path d="M201.371 130.798L201.239 132.665H203.099L203.231 130.798H201.371Z" fill="#263238"/>
<path d="M210.684 130.798L210.56 132.665H212.419L212.551 130.798H210.684Z" fill="#263238"/>
<path d="M212.551 130.798L212.419 132.665H214.286L214.411 130.798H212.551Z" fill="#263238"/>
<path d="M218.138 130.798L218.013 132.665H219.873L220.005 130.798H218.138Z" fill="#263238"/>
<path d="M221.865 130.798L221.74 132.665H223.6L223.732 130.798H221.865Z" fill="#263238"/>
<path d="M223.732 130.798L223.6 132.665H225.467L225.599 130.798H223.732Z" fill="#263238"/>
<path d="M225.599 130.798L225.467 132.665H227.327L227.459 130.798H225.599Z" fill="#263238"/>
<path d="M229.325 130.798L229.193 132.665H231.053L231.185 130.798H229.325Z" fill="#263238"/>
<path d="M184.465 132.665L184.333 134.525H186.2L186.332 132.665H184.465Z" fill="#263238"/>
<path d="M188.192 132.665L188.067 134.525H189.927L190.059 132.665H188.192Z" fill="#263238"/>
<path d="M190.059 132.665L189.927 134.525H191.794L191.919 132.665H190.059Z" fill="#263238"/>
<path d="M191.919 132.665L191.794 134.525H193.654L193.786 132.665H191.919Z" fill="#263238"/>
<path d="M195.646 132.665L195.521 134.525H197.381L197.512 132.665H195.646Z" fill="#263238"/>
<path d="M201.239 132.665L201.107 134.525H202.974L203.099 132.665H201.239Z" fill="#263238"/>
<path d="M206.826 132.665L206.701 134.525H208.561L208.693 132.665H206.826Z" fill="#263238"/>
<path d="M208.693 132.665L208.561 134.525H210.428L210.56 132.665H208.693Z" fill="#263238"/>
<path d="M210.56 132.665L210.428 134.525H212.288L212.42 132.665H210.56Z" fill="#263238"/>
<path d="M212.419 132.665L212.288 134.525H214.154L214.286 132.665H212.419Z" fill="#263238"/>
<path d="M218.013 132.665L217.881 134.525H219.741L219.873 132.665H218.013Z" fill="#263238"/>
<path d="M221.74 132.665L221.608 134.525H223.468L223.6 132.665H221.74Z" fill="#263238"/>
<path d="M223.6 132.665L223.468 134.525H225.335L225.467 132.665H223.6Z" fill="#263238"/>
<path d="M225.467 132.665L225.335 134.525H227.202L227.327 132.665H225.467Z" fill="#263238"/>
<path d="M229.194 132.665L229.062 134.525H230.929L231.053 132.665H229.194Z" fill="#263238"/>
<path d="M184.333 134.525L184.208 136.392H186.068L186.2 134.525H184.333Z" fill="#263238"/>
<path d="M195.521 134.525L195.389 136.392H197.249L197.381 134.525H195.521Z" fill="#263238"/>
<path d="M202.974 134.525L202.842 136.392H204.702L204.834 134.525H202.974Z" fill="#263238"/>
<path d="M204.834 134.525L204.702 136.392H206.569L206.701 134.525H204.834Z" fill="#263238"/>
<path d="M208.561 134.525L208.429 136.392H210.296L210.428 134.525H208.561Z" fill="#263238"/>
<path d="M210.428 134.525L210.296 136.392H212.156L212.288 134.525H210.428Z" fill="#263238"/>
<path d="M212.288 134.525L212.156 136.392H214.023L214.155 134.525H212.288Z" fill="#263238"/>
<path d="M214.154 134.525L214.023 136.392H215.889L216.014 134.525H214.154Z" fill="#263238"/>
<path d="M217.881 134.525L217.749 136.392H219.616L219.741 134.525H217.881Z" fill="#263238"/>
<path d="M229.062 134.525L228.93 136.392H230.797L230.928 134.525H229.062Z" fill="#263238"/>
<path d="M184.208 136.392L184.077 138.259H185.936L186.068 136.392H184.208Z" fill="#263238"/>
<path d="M186.068 136.392L185.936 138.259H187.803L187.935 136.392H186.068Z" fill="#263238"/>
<path d="M187.935 136.392L187.803 138.259H189.663L189.795 136.392H187.935Z" fill="#263238"/>
<path d="M189.795 136.392L189.663 138.259H191.53L191.662 136.392H189.795Z" fill="#263238"/>
<path d="M191.662 136.392L191.53 138.259H193.397L193.522 136.392H191.662Z" fill="#263238"/>
<path d="M193.522 136.392L193.397 138.259H195.257L195.389 136.392H193.522Z" fill="#263238"/>
<path d="M195.389 136.392L195.257 138.259H197.124L197.249 136.392H195.389Z" fill="#263238"/>
<path d="M199.116 136.392L198.984 138.259H200.851L200.975 136.392H199.116Z" fill="#263238"/>
<path d="M202.842 136.392L202.71 138.259H204.577L204.702 136.392H202.842Z" fill="#263238"/>
<path d="M206.569 136.392L206.437 138.259H208.304L208.429 136.392H206.569Z" fill="#263238"/>
<path d="M210.296 136.392L210.164 138.259H212.031L212.156 136.392H210.296Z" fill="#263238"/>
<path d="M214.023 136.392L213.891 138.259H215.758L215.89 136.392H214.023Z" fill="#263238"/>
<path d="M217.749 136.392L217.618 138.259H219.484L219.616 136.392H217.749Z" fill="#263238"/>
<path d="M219.616 136.392L219.484 138.259H221.344L221.476 136.392H219.616Z" fill="#263238"/>
<path d="M221.476 136.392L221.344 138.259H223.211L223.343 136.392H221.476Z" fill="#263238"/>
<path d="M223.343 136.392L223.211 138.259H225.071L225.203 136.392H223.343Z" fill="#263238"/>
<path d="M225.203 136.392L225.071 138.259H226.938L227.07 136.392H225.203Z" fill="#263238"/>
<path d="M227.07 136.392L226.938 138.259H228.805L228.93 136.392H227.07Z" fill="#263238"/>
<path d="M228.93 136.392L228.805 138.259H230.665L230.797 136.392H228.93Z" fill="#263238"/>
<path d="M198.984 138.259L198.852 140.119H200.719L200.851 138.259H198.984Z" fill="#263238"/>
<path d="M206.437 138.259L206.305 140.119H208.172L208.304 138.259H206.437Z" fill="#263238"/>
<path d="M208.304 138.259L208.172 140.119H210.032L210.164 138.259H208.304Z" fill="#263238"/>
<path d="M213.891 138.259L213.759 140.119H215.626L215.758 138.259H213.891Z" fill="#263238"/>
<path d="M183.945 140.119L183.813 141.985H185.68L185.812 140.119H183.945Z" fill="#263238"/>
<path d="M185.812 140.119L185.68 141.985H187.54L187.671 140.119H185.812Z" fill="#263238"/>
<path d="M187.671 140.119L187.54 141.985H189.406L189.538 140.119H187.671Z" fill="#263238"/>
<path d="M191.398 140.119L191.266 141.985H193.133L193.265 140.119H191.398Z" fill="#263238"/>
<path d="M193.265 140.119L193.133 141.985H195L195.125 140.119H193.265Z" fill="#263238"/>
<path d="M195.125 140.119L195 141.985H196.86L196.992 140.119H195.125Z" fill="#263238"/>
<path d="M196.992 140.119L196.86 141.985H198.727L198.852 140.119H196.992Z" fill="#263238"/>
<path d="M198.852 140.119L198.727 141.985H200.587L200.719 140.119H198.852Z" fill="#263238"/>
<path d="M204.445 140.119L204.314 141.985H206.18L206.305 140.119H204.445Z" fill="#263238"/>
<path d="M206.305 140.119L206.18 141.985H208.04L208.172 140.119H206.305Z" fill="#263238"/>
<path d="M208.172 140.119L208.04 141.985H209.907L210.032 140.119H208.172Z" fill="#263238"/>
<path d="M213.759 140.119L213.634 141.985H215.494L215.626 140.119H213.759Z" fill="#263238"/>
<path d="M215.626 140.119L215.494 141.985H217.361L217.493 140.119H215.626Z" fill="#263238"/>
<path d="M217.493 140.119L217.361 141.985H219.221L219.353 140.119H217.493Z" fill="#263238"/>
<path d="M224.946 140.119L224.814 141.985H226.674L226.806 140.119H224.946Z" fill="#263238"/>
<path d="M187.54 141.985L187.415 143.845H189.275L189.406 141.985H187.54Z" fill="#263238"/>
<path d="M189.407 141.985L189.275 143.845H191.142L191.266 141.985H189.407Z" fill="#263238"/>
<path d="M191.266 141.985L191.141 143.845H193.001L193.133 141.985H191.266Z" fill="#263238"/>
<path d="M196.86 141.985L196.728 143.845H198.595L198.727 141.985H196.86Z" fill="#263238"/>
<path d="M198.727 141.985L198.595 143.845H200.455L200.587 141.985H198.727Z" fill="#263238"/>
<path d="M200.587 141.985L200.455 143.845H202.322L202.454 141.985H200.587Z" fill="#263238"/>
<path d="M204.314 141.985L204.182 143.845H206.049L206.18 141.985H204.314Z" fill="#263238"/>
<path d="M206.18 141.985L206.049 143.845H207.908L208.04 141.985H206.18Z" fill="#263238"/>
<path d="M213.634 141.985L213.502 143.845H215.362L215.494 141.985H213.634Z" fill="#263238"/>
<path d="M217.361 141.985L217.229 143.845H219.089L219.221 141.985H217.361Z" fill="#263238"/>
<path d="M228.541 141.985L228.409 143.845H230.276L230.408 141.985H228.541Z" fill="#263238"/>
<path d="M187.415 143.845L187.283 145.712H189.143L189.275 143.845H187.415Z" fill="#263238"/>
<path d="M194.868 143.845L194.736 145.712H196.596L196.728 143.845H194.868Z" fill="#263238"/>
<path d="M196.728 143.845L196.596 145.712H198.463L198.595 143.845H196.728Z" fill="#263238"/>
<path d="M202.322 143.845L202.19 145.712H204.05L204.182 143.845H202.322Z" fill="#263238"/>
<path d="M206.049 143.845L205.917 145.712H207.784L207.909 143.845H206.049Z" fill="#263238"/>
<path d="M209.775 143.845L209.643 145.712H211.51L211.635 143.845H209.775Z" fill="#263238"/>
<path d="M217.229 143.845L217.097 145.712H218.964L219.089 143.845H217.229Z" fill="#263238"/>
<path d="M219.089 143.845L218.964 145.712H220.824L220.956 143.845H219.089Z" fill="#263238"/>
<path d="M220.956 143.845L220.824 145.712H222.691L222.823 143.845H220.956Z" fill="#263238"/>
<path d="M224.683 143.845L224.551 145.712H226.418L226.549 143.845H224.683Z" fill="#263238"/>
<path d="M226.549 143.845L226.417 145.712H228.277L228.409 143.845H226.549Z" fill="#263238"/>
<path d="M228.409 143.845L228.277 145.712H230.144L230.276 143.845H228.409Z" fill="#263238"/>
<path d="M183.556 145.712L183.424 147.572H185.291L185.416 145.712H183.556Z" fill="#263238"/>
<path d="M185.416 145.712L185.291 147.572H187.151L187.283 145.712H185.416Z" fill="#263238"/>
<path d="M187.283 145.712L187.151 147.572H189.018L189.143 145.712H187.283Z" fill="#263238"/>
<path d="M191.01 145.712L190.878 147.572H192.745L192.87 145.712H191.01Z" fill="#263238"/>
<path d="M200.323 145.712L200.198 147.572H202.058L202.19 145.712H200.323Z" fill="#263238"/>
<path d="M202.19 145.712L202.058 147.572H203.925L204.05 145.712H202.19Z" fill="#263238"/>
<path d="M205.917 145.712L205.785 147.572H207.652L207.784 145.712H205.917Z" fill="#263238"/>
<path d="M207.784 145.712L207.652 147.572H209.512L209.644 145.712H207.784Z" fill="#263238"/>
<path d="M209.643 145.712L209.512 147.572H211.378L211.51 145.712H209.643Z" fill="#263238"/>
<path d="M211.51 145.712L211.379 147.572H213.238L213.37 145.712H211.51Z" fill="#263238"/>
<path d="M215.237 145.712L215.105 147.572H216.965L217.097 145.712H215.237Z" fill="#263238"/>
<path d="M217.097 145.712L216.965 147.572H218.832L218.964 145.712H217.097Z" fill="#263238"/>
<path d="M218.964 145.712L218.832 147.572H220.692L220.824 145.712H218.964Z" fill="#263238"/>
<path d="M226.418 145.712L226.286 147.572H228.153L228.277 145.712H226.418Z" fill="#263238"/>
<path d="M187.151 147.572L187.019 149.439H188.886L189.018 147.572H187.151Z" fill="#263238"/>
<path d="M189.018 147.572L188.886 149.439H190.746L190.878 147.572H189.018Z" fill="#263238"/>
<path d="M194.605 147.572L194.473 149.439H196.34L196.471 147.572H194.605Z" fill="#263238"/>
<path d="M198.331 147.572L198.199 149.439H200.066L200.198 147.572H198.331Z" fill="#263238"/>
<path d="M202.058 147.572L201.926 149.439H203.793L203.925 147.572H202.058Z" fill="#263238"/>
<path d="M207.652 147.572L207.52 149.439H209.387L209.512 147.572H207.652Z" fill="#263238"/>
<path d="M213.238 147.572L213.114 149.439H214.973L215.105 147.572H213.238Z" fill="#263238"/>
<path d="M215.105 147.572L214.973 149.439H216.84L216.965 147.572H215.105Z" fill="#263238"/>
<path d="M216.965 147.572L216.84 149.439H218.7L218.832 147.572H216.965Z" fill="#263238"/>
<path d="M218.832 147.572L218.7 149.439H220.567L220.692 147.572H218.832Z" fill="#263238"/>
<path d="M222.559 147.572L222.427 149.439H224.294L224.426 147.572H222.559Z" fill="#263238"/>
<path d="M226.286 147.572L226.154 149.439H228.021L228.153 147.572H226.286Z" fill="#263238"/>
<path d="M228.152 147.572L228.021 149.439H229.881L230.012 147.572H228.152Z" fill="#263238"/>
<path d="M192.613 149.439L192.481 151.299H194.348L194.473 149.439H192.613Z" fill="#263238"/>
<path d="M196.34 149.439L196.208 151.299H198.075L198.199 149.439H196.34Z" fill="#263238"/>
<path d="M198.199 149.439L198.075 151.299H199.934L200.066 149.439H198.199Z" fill="#263238"/>
<path d="M201.926 149.439L201.801 151.299H203.661L203.793 149.439H201.926Z" fill="#263238"/>
<path d="M205.653 149.439L205.528 151.299H207.388L207.52 149.439H205.653Z" fill="#263238"/>
<path d="M213.114 149.439L212.982 151.299H214.842L214.973 149.439H213.114Z" fill="#263238"/>
<path d="M214.973 149.439L214.842 151.299H216.708L216.84 149.439H214.973Z" fill="#263238"/>
<path d="M216.84 149.439L216.708 151.299H218.568L218.7 149.439H216.84Z" fill="#263238"/>
<path d="M222.427 149.439L222.295 151.299H224.162L224.294 149.439H222.427Z" fill="#263238"/>
<path d="M228.021 149.439L227.889 151.299H229.756L229.881 149.439H228.021Z" fill="#263238"/>
<path d="M183.161 151.299L183.036 153.166H184.896L185.027 151.299H183.161Z" fill="#263238"/>
<path d="M188.754 151.299L188.622 153.166H190.489L190.621 151.299H188.754Z" fill="#263238"/>
<path d="M190.621 151.299L190.489 153.166H192.349L192.481 151.299H190.621Z" fill="#263238"/>
<path d="M192.481 151.299L192.349 153.166H194.216L194.348 151.299H192.481Z" fill="#263238"/>
<path d="M194.348 151.299L194.216 153.166H196.076L196.208 151.299H194.348Z" fill="#263238"/>
<path d="M196.208 151.299L196.076 153.166H197.943L198.075 151.299H196.208Z" fill="#263238"/>
<path d="M199.934 151.299L199.803 153.166H201.669L201.801 151.299H199.934Z" fill="#263238"/>
<path d="M201.801 151.299L201.669 153.166H203.529L203.661 151.299H201.801Z" fill="#263238"/>
<path d="M207.388 151.299L207.256 153.166H209.123L209.255 151.299H207.388Z" fill="#263238"/>
<path d="M212.982 151.299L212.85 153.166H214.717L214.842 151.299H212.982Z" fill="#263238"/>
<path d="M214.842 151.299L214.717 153.166H216.577L216.708 151.299H214.842Z" fill="#263238"/>
<path d="M216.708 151.299L216.577 153.166H218.443L218.568 151.299H216.708Z" fill="#263238"/>
<path d="M218.568 151.299L218.443 153.166H220.303L220.435 151.299H218.568Z" fill="#263238"/>
<path d="M224.162 151.299L224.03 153.166H225.897L226.029 151.299H224.162Z" fill="#263238"/>
<path d="M226.029 151.299L225.897 153.166H227.757L227.889 151.299H226.029Z" fill="#263238"/>
<path d="M227.889 151.299L227.757 153.166H229.624L229.756 151.299H227.889Z" fill="#263238"/>
<path d="M184.895 153.166L184.764 155.026H186.63L186.762 153.166H184.895Z" fill="#263238"/>
<path d="M186.762 153.166L186.63 155.026H188.497L188.622 153.166H186.762Z" fill="#263238"/>
<path d="M192.349 153.166L192.224 155.026H194.084L194.216 153.166H192.349Z" fill="#263238"/>
<path d="M196.076 153.166L195.951 155.026H197.811L197.943 153.166H196.076Z" fill="#263238"/>
<path d="M199.803 153.166L199.678 155.026H201.538L201.669 153.166H199.803Z" fill="#263238"/>
<path d="M201.669 153.166L201.538 155.026H203.404L203.529 153.166H201.669Z" fill="#263238"/>
<path d="M207.256 153.166L207.131 155.026H208.991L209.123 153.166H207.256Z" fill="#263238"/>
<path d="M210.99 153.166L210.858 155.026H212.718L212.85 153.166H210.99Z" fill="#263238"/>
<path d="M216.577 153.166L216.445 155.026H218.312L218.443 153.166H216.577Z" fill="#263238"/>
<path d="M220.303 153.166L220.172 155.026H222.038L222.17 153.166H220.303Z" fill="#263238"/>
<path d="M225.897 153.166L225.765 155.026H227.632L227.757 153.166H225.897Z" fill="#263238"/>
<path d="M182.904 155.026L182.772 156.892H184.639L184.764 155.026H182.904Z" fill="#263238"/>
<path d="M186.631 155.026L186.499 156.892H188.366L188.497 155.026H186.631Z" fill="#263238"/>
<path d="M192.224 155.026L192.092 156.892H193.952L194.084 155.026H192.224Z" fill="#263238"/>
<path d="M194.084 155.026L193.952 156.892H195.819L195.951 155.026H194.084Z" fill="#263238"/>
<path d="M195.951 155.026L195.819 156.892H197.679L197.811 155.026H195.951Z" fill="#263238"/>
<path d="M207.131 155.026L206.999 156.892H208.859L208.991 155.026H207.131Z" fill="#263238"/>
<path d="M212.718 155.026L212.586 156.892H214.453L214.585 155.026H212.718Z" fill="#263238"/>
<path d="M214.585 155.026L214.453 156.892H216.32L216.445 155.026H214.585Z" fill="#263238"/>
<path d="M216.445 155.026L216.32 156.892H218.18L218.312 155.026H216.445Z" fill="#263238"/>
<path d="M218.312 155.026L218.18 156.892H220.047L220.172 155.026H218.312Z" fill="#263238"/>
<path d="M220.171 155.026L220.047 156.892H221.906L222.038 155.026H220.171Z" fill="#263238"/>
<path d="M222.038 155.026L221.906 156.892H223.773L223.905 155.026H222.038Z" fill="#263238"/>
<path d="M197.679 156.893L197.547 158.752H199.414L199.546 156.893H197.679Z" fill="#263238"/>
<path d="M201.406 156.893L201.281 158.752H203.141L203.273 156.893H201.406Z" fill="#263238"/>
<path d="M205.132 156.893L205.008 158.752H206.867L206.999 156.893H205.132Z" fill="#263238"/>
<path d="M212.586 156.893L212.461 158.752H214.321L214.453 156.893H212.586Z" fill="#263238"/>
<path d="M220.047 156.893L219.915 158.752H221.775L221.907 156.893H220.047Z" fill="#263238"/>
<path d="M221.907 156.893L221.775 158.752H223.642L223.773 156.893H221.907Z" fill="#263238"/>
<path d="M225.633 156.893L225.501 158.752H227.368L227.5 156.893H225.633Z" fill="#263238"/>
<path d="M227.5 156.893L227.368 158.752H229.235L229.36 156.893H227.5Z" fill="#263238"/>
<path d="M182.64 158.752L182.515 160.619H184.375L184.507 158.752H182.64Z" fill="#263238"/>
<path d="M184.507 158.752L184.375 160.619H186.242L186.367 158.752H184.507Z" fill="#263238"/>
<path d="M186.367 158.752L186.242 160.619H188.102L188.234 158.752H186.367Z" fill="#263238"/>
<path d="M188.234 158.752L188.102 160.619H189.969L190.094 158.752H188.234Z" fill="#263238"/>
<path d="M190.094 158.752L189.969 160.619H191.829L191.96 158.752H190.094Z" fill="#263238"/>
<path d="M191.96 158.752L191.829 160.619H193.695L193.827 158.752H191.96Z" fill="#263238"/>
<path d="M193.827 158.752L193.695 160.619H195.555L195.687 158.752H193.827Z" fill="#263238"/>
<path d="M197.547 158.752L197.422 160.619H199.282L199.414 158.752H197.547Z" fill="#263238"/>
<path d="M199.414 158.752L199.282 160.619H201.149L201.281 158.752H199.414Z" fill="#263238"/>
<path d="M201.281 158.752L201.149 160.619H203.009L203.141 158.752H201.281Z" fill="#263238"/>
<path d="M206.867 158.752L206.736 160.619H208.602L208.734 158.752H206.867Z" fill="#263238"/>
<path d="M208.734 158.752L208.603 160.619H210.462L210.594 158.752H208.734Z" fill="#263238"/>
<path d="M210.594 158.752L210.462 160.619H212.329L212.461 158.752H210.594Z" fill="#263238"/>
<path d="M212.461 158.752L212.329 160.619H214.189L214.321 158.752H212.461Z" fill="#263238"/>
<path d="M216.188 158.752L216.056 160.619H217.923L218.048 158.752H216.188Z" fill="#263238"/>
<path d="M219.915 158.752L219.783 160.619H221.65L221.775 158.752H219.915Z" fill="#263238"/>
<path d="M221.775 158.752L221.65 160.619H223.51L223.641 158.752H221.775Z" fill="#263238"/>
<path d="M225.501 158.752L225.377 160.619H227.236L227.368 158.752H225.501Z" fill="#263238"/>
<path d="M227.368 158.752L227.236 160.619H229.103L229.235 158.752H227.368Z" fill="#263238"/>
<path d="M182.515 160.619L182.383 162.479H184.243L184.375 160.619H182.515Z" fill="#263238"/>
<path d="M193.695 160.619L193.564 162.479H195.43L195.555 160.619H193.695Z" fill="#263238"/>
<path d="M197.422 160.619L197.29 162.479H199.15L199.282 160.619H197.422Z" fill="#263238"/>
<path d="M204.876 160.619L204.744 162.479H206.611L206.736 160.619H204.876Z" fill="#263238"/>
<path d="M206.736 160.619L206.611 162.479H208.471L208.602 160.619H206.736Z" fill="#263238"/>
<path d="M208.602 160.619L208.471 162.479H210.337L210.462 160.619H208.602Z" fill="#263238"/>
<path d="M212.329 160.619L212.197 162.479H214.064L214.189 160.619H212.329Z" fill="#263238"/>
<path d="M219.783 160.619L219.651 162.479H221.518L221.65 160.619H219.783Z" fill="#263238"/>
<path d="M221.65 160.619L221.518 162.479H223.378L223.51 160.619H221.65Z" fill="#263238"/>
<path d="M225.376 160.619L225.245 162.479H227.105L227.236 160.619H225.376Z" fill="#263238"/>
<path d="M182.383 162.479L182.251 164.346H184.118L184.243 162.479H182.383Z" fill="#263238"/>
<path d="M186.11 162.479L185.978 164.346H187.845L187.97 162.479H186.11Z" fill="#263238"/>
<path d="M187.97 162.479L187.845 164.346H189.705L189.837 162.479H187.97Z" fill="#263238"/>
<path d="M189.837 162.479L189.705 164.346H191.572L191.697 162.479H189.837Z" fill="#263238"/>
<path d="M193.564 162.479L193.432 164.346H195.299L195.43 162.479H193.564Z" fill="#263238"/>
<path d="M197.29 162.479L197.158 164.346H199.025L199.15 162.479H197.29Z" fill="#263238"/>
<path d="M202.884 162.479L202.752 164.346H204.612L204.744 162.479H202.884Z" fill="#263238"/>
<path d="M204.744 162.479L204.612 164.346H206.479L206.611 162.479H204.744Z" fill="#263238"/>
<path d="M206.611 162.479L206.479 164.346H208.339L208.471 162.479H206.611Z" fill="#263238"/>
<path d="M208.471 162.479L208.339 164.346H210.206L210.338 162.479H208.471Z" fill="#263238"/>
<path d="M212.197 162.479L212.066 164.346H213.932L214.064 162.479H212.197Z" fill="#263238"/>
<path d="M214.064 162.479L213.932 164.346H215.792L215.924 162.479H214.064Z" fill="#263238"/>
<path d="M215.924 162.479L215.792 164.346H217.659L217.791 162.479H215.924Z" fill="#263238"/>
<path d="M217.791 162.479L217.659 164.346H219.519L219.651 162.479H217.791Z" fill="#263238"/>
<path d="M219.651 162.479L219.519 164.346H221.386L221.518 162.479H219.651Z" fill="#263238"/>
<path d="M221.518 162.479L221.386 164.346H223.253L223.378 162.479H221.518Z" fill="#263238"/>
<path d="M225.245 162.479L225.113 164.346H226.98L227.105 162.479H225.245Z" fill="#263238"/>
<path d="M182.251 164.346L182.12 166.206H183.986L184.118 164.346H182.251Z" fill="#263238"/>
<path d="M185.978 164.346L185.846 166.206H187.713L187.845 164.346H185.978Z" fill="#263238"/>
<path d="M187.845 164.346L187.713 166.206H189.573L189.705 164.346H187.845Z" fill="#263238"/>
<path d="M189.705 164.346L189.573 166.206H191.44L191.572 164.346H189.705Z" fill="#263238"/>
<path d="M193.432 164.346L193.3 166.206H195.167L195.299 164.346H193.432Z" fill="#263238"/>
<path d="M199.025 164.346L198.893 166.206H200.753L200.885 164.346H199.025Z" fill="#263238"/>
<path d="M200.885 164.346L200.753 166.206H202.62L202.752 164.346H200.885Z" fill="#263238"/>
<path d="M204.612 164.346L204.48 166.206H206.347L206.479 164.346H204.612Z" fill="#263238"/>
<path d="M210.206 164.346L210.074 166.206H211.941L212.066 164.346H210.206Z" fill="#263238"/>
<path d="M212.066 164.346L211.941 166.206H213.801L213.932 164.346H212.066Z" fill="#263238"/>
<path d="M217.659 164.346L217.527 166.206H219.394L219.519 164.346H217.659Z" fill="#263238"/>
<path d="M219.519 164.346L219.394 166.206H221.254L221.386 164.346H219.519Z" fill="#263238"/>
<path d="M221.386 164.346L221.254 166.206H223.121L223.253 164.346H221.386Z" fill="#263238"/>
<path d="M223.253 164.346L223.121 166.206H224.981L225.113 164.346H223.253Z" fill="#263238"/>
<path d="M182.119 166.206L181.988 168.073H183.854L183.986 166.206H182.119Z" fill="#263238"/>
<path d="M185.846 166.206L185.721 168.073H187.581L187.713 166.206H185.846Z" fill="#263238"/>
<path d="M187.713 166.206L187.581 168.073H189.448L189.573 166.206H187.713Z" fill="#263238"/>
<path d="M189.573 166.206L189.448 168.073H191.308L191.44 166.206H189.573Z" fill="#263238"/>
<path d="M193.3 166.206L193.175 168.073H195.035L195.167 166.206H193.3Z" fill="#263238"/>
<path d="M197.027 166.206L196.902 168.073H198.762L198.893 166.206H197.027Z" fill="#263238"/>
<path d="M206.347 166.206L206.215 168.073H208.082L208.214 166.206H206.347Z" fill="#263238"/>
<path d="M210.074 166.206L209.942 168.073H211.809L211.941 166.206H210.074Z" fill="#263238"/>
<path d="M219.394 166.206L219.262 168.073H221.129L221.254 166.206H219.394Z" fill="#263238"/>
<path d="M226.848 166.206L226.716 168.073H228.583L228.708 166.206H226.848Z" fill="#263238"/>
<path d="M181.988 168.073L181.863 169.933H183.723L183.854 168.073H181.988Z" fill="#263238"/>
<path d="M193.175 168.073L193.043 169.933H194.903L195.035 168.073H193.175Z" fill="#263238"/>
<path d="M196.902 168.073L196.77 169.933H198.63L198.762 168.073H196.902Z" fill="#263238"/>
<path d="M198.762 168.073L198.63 169.933H200.497L200.628 168.073H198.762Z" fill="#263238"/>
<path d="M202.488 168.073L202.357 169.933H204.223L204.355 168.073H202.488Z" fill="#263238"/>
<path d="M206.215 168.073L206.083 169.933H207.95L208.082 168.073H206.215Z" fill="#263238"/>
<path d="M208.082 168.073L207.95 169.933H209.817L209.942 168.073H208.082Z" fill="#263238"/>
<path d="M209.942 168.073L209.817 169.933H211.677L211.809 168.073H209.942Z" fill="#263238"/>
<path d="M211.809 168.073L211.677 169.933H213.544L213.669 168.073H211.809Z" fill="#263238"/>
<path d="M215.536 168.073L215.404 169.933H217.271L217.396 168.073H215.536Z" fill="#263238"/>
<path d="M219.262 168.073L219.13 169.933H220.997L221.129 168.073H219.262Z" fill="#263238"/>
<path d="M221.129 168.073L220.997 169.933H222.857L222.989 168.073H221.129Z" fill="#263238"/>
<path d="M224.856 168.073L224.724 169.933H226.584L226.716 168.073H224.856Z" fill="#263238"/>
<path d="M181.863 169.933L181.731 171.8H183.591L183.723 169.933H181.863Z" fill="#263238"/>
<path d="M183.723 169.933L183.591 171.8H185.458L185.589 169.933H183.723Z" fill="#263238"/>
<path d="M185.59 169.933L185.458 171.8H187.325L187.449 169.933H185.59Z" fill="#263238"/>
<path d="M187.449 169.933L187.324 171.8H189.184L189.316 169.933H187.449Z" fill="#263238"/>
<path d="M189.316 169.933L189.184 171.8H191.051L191.176 169.933H189.316Z" fill="#263238"/>
<path d="M191.176 169.933L191.051 171.8H192.911L193.043 169.933H191.176Z" fill="#263238"/>
<path d="M193.043 169.933L192.911 171.8H194.778L194.903 169.933H193.043Z" fill="#263238"/>
<path d="M196.77 169.933L196.638 171.8H198.505L198.63 169.933H196.77Z" fill="#263238"/>
<path d="M198.63 169.933L198.505 171.8H200.365L200.497 169.933H198.63Z" fill="#263238"/>
<path d="M200.497 169.933L200.365 171.8H202.232L202.357 169.933H200.497Z" fill="#263238"/>
<path d="M202.356 169.933L202.232 171.8H204.091L204.223 169.933H202.356Z" fill="#263238"/>
<path d="M204.223 169.933L204.091 171.8H205.958L206.083 169.933H204.223Z" fill="#263238"/>
<path d="M206.083 169.933L205.958 171.8H207.818L207.95 169.933H206.083Z" fill="#263238"/>
<path d="M211.677 169.933L211.545 171.8H213.412L213.544 169.933H211.677Z" fill="#263238"/>
<path d="M213.544 169.933L213.412 171.8H215.272L215.404 169.933H213.544Z" fill="#263238"/>
<path d="M217.271 169.933L217.139 171.8H218.999L219.131 169.933H217.271Z" fill="#263238"/>
<path d="M224.724 169.933L224.592 171.8H226.459L226.584 169.933H224.724Z" fill="#263238"/>
<path d="M226.584 169.933L226.459 171.8H228.319L228.451 169.933H226.584Z" fill="#263238"/>
<path d="M132.283 284.825L137.697 283.52L134.9 270.945L129.493 272.249L132.283 284.825Z" fill="#FF887B"/>
<path d="M137.488 282.215L131.575 283.645C131.47 283.669 131.376 283.729 131.31 283.816C131.244 283.902 131.21 284.008 131.215 284.117L131.423 289.141C131.428 289.251 131.455 289.358 131.502 289.457C131.549 289.556 131.615 289.645 131.696 289.718C131.777 289.792 131.872 289.848 131.975 289.885C132.078 289.922 132.188 289.938 132.297 289.932C132.35 289.939 132.404 289.939 132.457 289.932C134.539 289.377 137.62 288.51 140.306 287.85C143.429 287.094 143.727 287.205 147.399 286.317C149.619 285.782 149.633 283.402 148.655 283.43C144.179 283.527 143.144 283.673 138.897 282.305C138.445 282.147 137.957 282.116 137.488 282.215Z" fill="#263238"/>
<path opacity="0.2" d="M134.9 270.952L136.343 277.433L130.93 278.738L129.493 272.256L134.9 270.952Z" fill="black"/>
<path d="M138.168 281.861C138.148 281.862 138.127 281.858 138.107 281.85C138.088 281.841 138.071 281.829 138.057 281.813C138.045 281.801 138.036 281.787 138.029 281.771C138.022 281.756 138.019 281.739 138.019 281.722C138.019 281.706 138.022 281.689 138.029 281.673C138.036 281.658 138.045 281.644 138.057 281.632C138.266 281.445 140.139 279.849 140.868 280.057C140.936 280.076 140.999 280.113 141.05 280.162C141.101 280.212 141.138 280.274 141.16 280.341C141.21 280.453 141.231 280.576 141.218 280.698C141.206 280.82 141.162 280.936 141.09 281.035C140.768 281.383 140.338 281.611 139.869 281.681C139.308 281.789 138.739 281.849 138.168 281.861ZM138.515 281.584C139.744 281.5 140.597 281.237 140.854 280.89C140.9 280.826 140.928 280.751 140.935 280.673C140.942 280.595 140.929 280.517 140.896 280.445C140.89 280.418 140.876 280.392 140.856 280.371C140.837 280.351 140.812 280.335 140.785 280.327C140.702 280.31 140.617 280.31 140.535 280.327C139.795 280.628 139.112 281.053 138.515 281.584Z" fill="#4582A4"/>
<path d="M138.106 281.868C138.086 281.857 138.069 281.843 138.056 281.825C138.043 281.807 138.034 281.786 138.03 281.764C138.03 281.709 137.801 280.237 138.314 279.529C138.387 279.423 138.481 279.334 138.592 279.268C138.702 279.203 138.825 279.161 138.953 279.148C139.307 279.092 139.48 279.245 139.515 279.377C139.772 279.96 138.821 281.403 138.245 281.854H138.189C138.163 281.866 138.134 281.871 138.106 281.868ZM138.529 279.689C138.261 280.247 138.173 280.876 138.279 281.486C138.828 280.938 139.452 279.828 139.3 279.488C139.3 279.453 139.244 279.349 139.015 279.404H138.939C138.852 279.419 138.769 279.452 138.695 279.499C138.621 279.547 138.558 279.609 138.509 279.682L138.529 279.689Z" fill="#4582A4"/>
<path d="M90.6503 283.742L96.1468 284.602L98.3745 271.916L92.8711 271.049L90.6503 283.742Z" fill="#FF887B"/>
<path d="M96.1953 283.957L90.1784 283.02C90.0714 283.002 89.9615 283.022 89.8677 283.077C89.7739 283.131 89.7022 283.217 89.6648 283.319L87.9367 288.038C87.8984 288.141 87.8811 288.251 87.8859 288.361C87.8907 288.471 87.9175 288.579 87.9647 288.679C88.0119 288.779 88.0786 288.868 88.1608 288.941C88.243 289.015 88.3391 289.071 88.4434 289.107C88.4923 289.127 88.5436 289.141 88.596 289.148C90.7683 289.447 93.9121 289.808 96.6395 290.238C99.818 290.737 100.054 290.932 103.781 291.536C106.036 291.89 106.959 289.697 106.043 289.343C101.879 287.726 100.866 287.462 97.4584 284.575C97.1003 284.26 96.6641 284.046 96.1953 283.957Z" fill="#263238"/>
<path opacity="0.2" d="M98.3745 271.916L97.0767 279.286L91.5803 278.426L92.8711 271.056L98.3745 271.916Z" fill="black"/>
<path d="M96.9518 283.888C96.9315 283.883 96.9129 283.873 96.8982 283.858C96.8835 283.843 96.8732 283.825 96.8685 283.804C96.8632 283.788 96.8611 283.772 96.8624 283.755C96.8637 283.738 96.8684 283.722 96.8762 283.707C96.884 283.692 96.8947 283.679 96.9077 283.668C96.9207 283.657 96.9357 283.65 96.9518 283.645C97.2155 283.555 99.5474 282.784 100.144 283.263C100.202 283.306 100.248 283.363 100.277 283.429C100.306 283.494 100.318 283.566 100.311 283.638C100.312 283.755 100.283 283.871 100.227 283.974C100.171 284.077 100.09 284.164 99.9915 284.228C99.5569 284.428 99.0668 284.472 98.6035 284.353C98.0399 284.249 97.4869 284.093 96.9518 283.888ZM97.3751 283.77C98.548 284.158 99.4571 284.249 99.818 283.999C99.8831 283.957 99.9364 283.9 99.9728 283.832C100.009 283.764 100.028 283.687 100.026 283.61C100.029 283.582 100.025 283.554 100.016 283.527C100.006 283.501 99.9908 283.477 99.9707 283.457C99.8974 283.416 99.8176 283.388 99.7347 283.374C98.9316 283.373 98.134 283.507 97.3751 283.77Z" fill="#4582A4"/>
<path d="M96.8755 283.846C96.8611 283.828 96.8506 283.806 96.8446 283.784C96.8386 283.761 96.8373 283.737 96.8408 283.714C96.8408 283.659 97.2086 282.215 97.9581 281.757C98.0661 281.688 98.1874 281.643 98.3141 281.624C98.4409 281.604 98.5702 281.612 98.6937 281.646C99.0477 281.736 99.1518 281.944 99.131 282.076C99.131 282.715 97.7083 283.686 97.0073 283.881H96.9518C96.9234 283.877 96.8967 283.865 96.8755 283.846ZM98.0969 281.986C97.6364 282.401 97.3162 282.949 97.1808 283.555C97.8748 283.256 98.9019 282.472 98.8881 282.097C98.8881 282.097 98.8881 281.944 98.659 281.91H98.5758C98.4088 281.885 98.2386 281.922 98.0969 282.014V281.986Z" fill="#4582A4"/>
<path d="M117.744 203.293C122.082 203.529 126.072 203.807 130.423 203.661C130.854 198.595 130.194 191.426 128.418 186.665C124.83 184.75 120.631 185.971 116.786 187.325L117.744 203.293Z" fill="#4582A4"/>
<path opacity="0.2" d="M117.744 203.293C122.082 203.529 126.072 203.807 130.423 203.661C130.854 198.595 130.194 191.426 128.418 186.665C124.83 184.75 120.631 185.971 116.786 187.325L117.744 203.293Z" fill="black"/>
<path opacity="0.2" d="M116.786 187.394L118.244 188.025L120.277 201.947L130.5 202.565L130.423 203.731L117.744 203.363L116.786 187.394Z" fill="black"/>
<path opacity="0.2" d="M128.39 186.686L129.008 188.581L125.447 189.906L119.604 188.99L116.759 187.345C118.69 186.453 120.761 185.899 122.88 185.708C126.579 185.298 128.39 186.686 128.39 186.686Z" fill="white"/>
<path d="M124.164 163.68L132.103 230.63L137.995 272.846C138.088 273.357 137.978 273.884 137.689 274.315C137.4 274.746 136.955 275.048 136.447 275.157L129.896 276.83C129.411 276.865 128.929 276.719 128.545 276.42C128.16 276.122 127.9 275.692 127.814 275.213C125.732 266.489 120.138 249.465 119.083 232.747C119.083 232.747 107.979 190.101 105.696 176.908L105.002 164.985L124.164 163.68Z" fill="#4582A4"/>
<path opacity="0.2" d="M114.323 179.85C114.323 179.85 116.342 198.831 114.323 214.259C114.323 214.259 110.055 196.555 108.118 189.566L114.323 179.85Z" fill="black"/>
<path d="M115.898 160.425L109.208 235.96L100.713 276.281C100.683 276.52 100.603 276.749 100.48 276.956C100.357 277.162 100.193 277.341 99.9973 277.481C99.8019 277.621 99.5798 277.719 99.3448 277.77C99.1097 277.82 98.8669 277.821 98.6313 277.774L91.4276 276.274C90.9522 276.133 90.5417 275.829 90.2677 275.415C89.9938 275.002 89.8737 274.505 89.9285 274.012C90.6225 265.302 90.2061 251.11 94.4534 235.717C94.4534 235.717 94.9323 183.667 96.7506 160.564L115.898 160.425Z" fill="#4582A4"/>
<path d="M157.829 126.405L159.28 124.393L164.54 127.627C163.472 128.535 162.308 129.326 161.07 129.986C160.656 130.197 160.189 130.286 159.726 130.242C159.263 130.198 158.821 130.022 158.454 129.736L158.26 129.584C157.789 129.214 157.481 128.675 157.401 128.082C157.32 127.488 157.474 126.887 157.829 126.405Z" fill="#FF8B7B"/>
<path d="M163.534 121.415L166.289 126.176L164.547 127.634L159.287 124.393L163.534 121.415Z" fill="#FF8B7B"/>
<path d="M121.686 132.096C127.184 133.371 132.743 134.365 138.342 135.073C141.118 135.434 152.958 132.714 158.058 131.825C158.232 131.834 158.405 131.798 158.56 131.721C158.715 131.643 158.848 131.527 158.945 131.383C159.042 131.239 159.1 131.073 159.114 130.9C159.128 130.727 159.096 130.553 159.023 130.396L158.399 125.947C158.387 125.516 158.233 125.101 157.961 124.767C157.707 124.589 157.415 124.473 157.108 124.427C156.8 124.381 156.487 124.408 156.192 124.504C149.439 125.614 139.792 126.308 139.792 126.308C135.018 125.614 129.903 123.636 125.538 121.665C112.511 115.808 118.792 131.346 121.686 132.096Z" fill="#263238"/>
<path opacity="0.1" d="M121.686 132.096C127.184 133.371 132.743 134.365 138.342 135.073C141.118 135.434 152.958 132.714 158.058 131.825C158.232 131.834 158.405 131.798 158.56 131.721C158.715 131.643 158.848 131.527 158.945 131.383C159.042 131.239 159.1 131.073 159.114 130.9C159.128 130.727 159.096 130.553 159.023 130.396L158.399 125.947C158.387 125.516 158.233 125.101 157.961 124.767C157.707 124.589 157.415 124.473 157.108 124.427C156.8 124.381 156.487 124.408 156.192 124.504C149.439 125.614 139.792 126.308 139.792 126.308C135.018 125.614 129.903 123.636 125.538 121.665C112.511 115.808 118.792 131.346 121.686 132.096Z" fill="black"/>
<path d="M168.08 130.299L162.098 129.112L165.762 116.55L171.737 117.737L168.08 130.299Z" fill="#4582A4"/>
<path d="M172.966 117.286L168.871 131.34C168.821 131.504 168.712 131.644 168.564 131.733C168.417 131.821 168.242 131.852 168.073 131.818L167.726 131.749C167.894 131.78 168.067 131.749 168.213 131.661C168.359 131.572 168.467 131.433 168.517 131.27L172.612 117.21C172.638 117.118 172.644 117.022 172.631 116.928C172.618 116.833 172.586 116.743 172.537 116.661C172.487 116.58 172.421 116.51 172.344 116.455C172.266 116.4 172.178 116.361 172.084 116.342L172.431 116.412C172.526 116.43 172.616 116.468 172.695 116.523C172.774 116.578 172.841 116.649 172.891 116.731C172.942 116.813 172.974 116.905 172.987 117.001C173 117.096 172.992 117.193 172.966 117.286Z" fill="#4582A4"/>
<path opacity="0.3" d="M172.966 117.286L168.871 131.34C168.821 131.504 168.712 131.644 168.564 131.733C168.417 131.821 168.242 131.852 168.073 131.818L167.726 131.749C167.894 131.78 168.067 131.749 168.213 131.661C168.359 131.572 168.467 131.433 168.517 131.27L172.612 117.21C172.638 117.118 172.644 117.022 172.631 116.928C172.618 116.833 172.586 116.743 172.537 116.661C172.487 116.58 172.421 116.51 172.344 116.455C172.266 116.4 172.178 116.361 172.084 116.342L172.431 116.412C172.526 116.43 172.616 116.468 172.695 116.523C172.774 116.578 172.841 116.649 172.891 116.731C172.942 116.813 172.974 116.905 172.987 117.001C173 117.096 172.992 117.193 172.966 117.286Z" fill="black"/>
<path d="M172.112 116.314L166.151 115.135C165.982 115.101 165.807 115.132 165.659 115.22C165.512 115.309 165.403 115.449 165.352 115.614L161.258 129.667C161.232 129.759 161.225 129.855 161.238 129.949C161.251 130.043 161.283 130.134 161.333 130.215C161.382 130.297 161.448 130.367 161.526 130.422C161.604 130.477 161.692 130.515 161.785 130.535L167.754 131.721C167.921 131.753 168.095 131.721 168.241 131.633C168.387 131.544 168.495 131.406 168.545 131.242L172.639 117.182C172.665 117.09 172.672 116.994 172.659 116.9C172.646 116.806 172.614 116.715 172.564 116.634C172.515 116.552 172.449 116.482 172.371 116.427C172.294 116.372 172.205 116.334 172.112 116.314ZM168.108 130.299L162.105 129.084L165.762 116.523L171.737 117.709L168.108 130.299Z" fill="#4582A4"/>
<path d="M171.737 117.737L168.08 130.299L162.098 129.112L165.762 116.55L171.737 117.737Z" fill="#4582A4"/>
<path opacity="0.7" d="M171.737 117.737L168.08 130.299L162.098 129.112L165.762 116.55L171.737 117.737Z" fill="white"/>
<path d="M161.91 122.553L163.257 121.131C163.286 121.098 163.323 121.074 163.365 121.06C163.407 121.047 163.451 121.044 163.494 121.054C163.537 121.063 163.577 121.083 163.61 121.112C163.642 121.142 163.666 121.179 163.68 121.221L163.867 121.762C163.923 121.931 163.941 122.11 163.92 122.286C163.898 122.463 163.837 122.632 163.742 122.782L161.702 125.996L159.294 124.393L161.91 122.553Z" fill="#FF8B7B"/>
<path d="M125.17 139.855C125.274 158.128 126.364 164.992 123.65 164.985C118.605 164.985 100.172 165.679 99.0963 165.498C91.1361 164.367 96.0218 146.247 95.9108 143.408C95.8414 141.659 95.6957 139.938 95.4666 138.196C95.3339 137.156 95.1015 136.131 94.7726 135.136C94.1897 133.463 93.2459 132.013 91.6219 131.478C90.1645 130.993 88.5683 131.416 87.0345 131.312C85.5008 131.208 83.7589 130.146 83.9462 128.626C84.1087 127.913 84.4925 127.269 85.0428 126.787C87.2774 124.407 89.7897 122.047 90.6711 118.91C91.0459 117.598 91.1222 116.134 91.8648 114.996C94.9323 110.284 102.275 114.878 105.904 116.224C108.243 117.085 110.36 118.369 112.685 119.236C115.121 120.152 119.403 120.367 122.526 120.492C125.343 120.603 125.17 139.855 125.17 139.855Z" fill="#263238"/>
<path d="M104.468 109.777C105.238 112.858 105.065 117.876 105.085 121.346C105.085 124.566 113.413 127.245 113.413 127.245C113.413 127.245 116.849 124.344 114.191 122.179C111.963 120.36 111.651 118.244 112.109 115.697L104.468 109.777Z" fill="#FF8B7B"/>
<path opacity="0.2" d="M107.612 112.206L112.157 115.676C112.014 116.383 111.926 117.1 111.894 117.82C110.242 117.668 107.889 115.981 107.619 114.274C107.491 113.591 107.489 112.89 107.612 112.206Z" fill="black"/>
<path d="M103.711 103.996C104.301 109.208 104.405 112.282 107.181 114.836C111.345 118.667 117.695 115.94 118.674 110.672C119.555 105.918 118.438 98.1802 113.212 96.3758C112.062 95.9702 110.828 95.8652 109.626 96.0708C108.424 96.2765 107.294 96.7858 106.345 97.5507C105.395 98.3155 104.656 99.3103 104.199 100.441C103.742 101.571 103.581 102.8 103.732 104.01L103.711 103.996Z" fill="#FF8B7B"/>
<path d="M118.924 109.104C119.201 111.137 119.542 114.732 120.145 116.738C116.585 116.738 113.205 116.925 109.624 116.911C109.132 116.536 104.766 112.747 105.085 112.393C106.293 111.151 107.771 109.749 106.369 108.347C105.939 107.917 106.168 107.147 106.106 106.55C107.397 108.493 112.352 109.895 114.614 109.478L118.924 109.104Z" fill="#263238"/>
<path d="M113.344 110.166C112.588 110.436 113.684 111.554 114.885 111.616H117.029C117.287 111.626 117.542 111.567 117.769 111.445C117.996 111.323 118.186 111.142 118.32 110.922C118.542 110.513 118.535 110.075 118.195 109.95C117.676 109.796 117.131 109.746 116.592 109.805C115.5 109.808 114.411 109.929 113.344 110.166Z" fill="#FF8B7B"/>
<path d="M117.286 110.631C116.699 110.809 116.077 110.844 115.473 110.733C114.87 110.622 114.301 110.368 113.816 109.992C113.804 109.98 113.794 109.965 113.787 109.949C113.78 109.933 113.777 109.916 113.777 109.898C113.777 109.881 113.78 109.864 113.787 109.848C113.794 109.832 113.804 109.817 113.816 109.805C113.839 109.79 113.865 109.782 113.892 109.782C113.919 109.782 113.946 109.79 113.969 109.805C114.428 110.152 114.962 110.387 115.529 110.49C116.096 110.592 116.679 110.56 117.23 110.395C117.248 110.389 117.266 110.388 117.284 110.39C117.302 110.392 117.319 110.398 117.335 110.407C117.35 110.416 117.364 110.428 117.375 110.443C117.385 110.458 117.393 110.474 117.397 110.492C117.403 110.525 117.397 110.559 117.379 110.587C117.361 110.616 117.332 110.636 117.3 110.644L117.286 110.631Z" fill="#263238"/>
<path d="M116.37 107.667C115.24 107.626 114.12 107.885 113.122 108.417C112.118 108.942 110.978 109.148 109.853 109.007C110.804 109.718 111.928 110.164 113.108 110.297C114.321 110.447 115.55 110.224 116.634 109.659C117.265 110.045 117.976 110.28 118.713 110.346C119.449 110.412 120.191 110.308 120.881 110.041C119.555 110.36 119.028 108.555 117.661 107.924C117.242 107.789 116.809 107.703 116.37 107.667Z" fill="#263238"/>
<path opacity="0.1" d="M116.37 107.667C115.24 107.626 114.12 107.885 113.122 108.417C112.118 108.942 110.978 109.148 109.853 109.007C110.804 109.718 111.928 110.164 113.108 110.297C114.321 110.447 115.55 110.224 116.634 109.659C117.265 110.045 117.976 110.28 118.713 110.346C119.449 110.412 120.191 110.308 120.881 110.041C119.555 110.36 119.028 108.555 117.661 107.924C117.242 107.789 116.809 107.703 116.37 107.667Z" fill="black"/>
<path d="M108.188 102.781C108.528 103.364 108.696 104.03 108.673 104.704C108.121 105.247 107.636 105.855 107.23 106.515C106.64 107.487 106.453 108.701 105.696 109.555C105.696 109.555 105.53 109.659 105.557 109.645C104.947 108.518 104.396 107.359 103.906 106.175C105.112 104.79 106.564 103.64 108.188 102.781Z" fill="#263238"/>
<path d="M101.768 109.083C102.347 110.271 103.373 111.181 104.62 111.616C106.272 112.178 107.202 110.721 106.814 109.09C106.473 107.646 105.197 105.62 103.496 105.738C103.124 105.774 102.766 105.903 102.456 106.113C102.146 106.323 101.894 106.607 101.722 106.94C101.55 107.273 101.464 107.643 101.472 108.017C101.48 108.392 101.582 108.758 101.768 109.083Z" fill="#FF8B7B"/>
<path d="M112.588 105.058C112.588 105.481 112.851 105.814 113.136 105.8C113.42 105.786 113.622 105.433 113.594 105.009C113.566 104.586 113.33 104.246 113.053 104.26C112.775 104.274 112.567 104.628 112.588 105.058Z" fill="#263238"/>
<path d="M117.036 104.794C117.036 105.224 117.3 105.557 117.577 105.537C117.855 105.516 118.063 105.169 118.042 104.739C118.022 104.308 117.779 103.989 117.494 104.003C117.21 104.017 117.015 104.385 117.036 104.794Z" fill="#263238"/>
<path d="M115.634 104.544C116.432 105.696 117.355 106.231 118.41 107.119C117.841 107.979 116.439 107.875 116.439 107.875L115.634 104.544Z" fill="#FF5652"/>
<path d="M111.04 103.58C111.086 103.587 111.133 103.581 111.175 103.561C111.217 103.541 111.253 103.509 111.276 103.468C111.447 103.205 111.678 102.985 111.949 102.826C112.22 102.667 112.524 102.574 112.837 102.552C112.903 102.553 112.967 102.527 113.014 102.482C113.062 102.437 113.091 102.375 113.094 102.31C113.096 102.276 113.091 102.243 113.08 102.212C113.069 102.181 113.051 102.153 113.028 102.129C113.005 102.105 112.978 102.086 112.948 102.072C112.917 102.059 112.884 102.053 112.851 102.053C112.454 102.07 112.066 102.182 111.721 102.38C111.375 102.579 111.082 102.856 110.867 103.191C110.831 103.246 110.817 103.312 110.829 103.377C110.84 103.441 110.876 103.499 110.929 103.538C110.963 103.559 111.001 103.573 111.04 103.58Z" fill="#263238"/>
<path d="M118.507 103.337C118.555 103.351 118.606 103.351 118.653 103.337C118.683 103.322 118.71 103.301 118.732 103.276C118.753 103.251 118.77 103.221 118.779 103.189C118.789 103.157 118.792 103.124 118.788 103.091C118.785 103.057 118.774 103.025 118.757 102.997C118.572 102.64 118.302 102.333 117.972 102.104C117.642 101.874 117.262 101.728 116.863 101.678C116.796 101.674 116.73 101.697 116.679 101.741C116.629 101.785 116.597 101.847 116.592 101.914C116.588 101.979 116.61 102.043 116.653 102.092C116.696 102.142 116.756 102.172 116.821 102.178C117.131 102.227 117.426 102.349 117.68 102.533C117.935 102.718 118.142 102.96 118.285 103.239C118.313 103.271 118.347 103.296 118.386 103.313C118.424 103.33 118.466 103.338 118.507 103.337Z" fill="#263238"/>
<path opacity="0.4" d="M99.6792 127.273C99.6792 127.273 99.9568 136.656 98.0969 141C97.3613 142.735 96.6464 143.616 96.0496 144.04C95.7789 142.305 95.4181 140.57 94.9878 138.911C94.7363 137.896 94.3853 136.908 93.9398 135.962L93.7733 133.789L99.6792 127.273Z" fill="black"/>
<path opacity="0.2" d="M101.324 166.511C101.262 166.81 101.081 168.357 100.845 169.392C100.288 171.375 99.0275 173.087 97.2988 174.208C95.9108 174.944 96.7159 168.482 96.7159 168.482L96.9796 166.255L101.324 166.511Z" fill="black"/>
<path d="M95.6263 166.511L100.963 168.94C100.595 170.945 99.4503 172.724 97.7777 173.889L97.3196 174.208C97.3196 174.208 92.1354 169.267 92.8364 167.781L95.6263 166.511Z" fill="#FF8B7B"/>
<path d="M85.015 150.411C85.015 158.086 87.6245 160.932 89.873 167.525C90.0945 168.178 90.5513 168.725 91.1542 169.06C91.7572 169.395 92.4633 169.493 93.1348 169.336C95.6818 168.767 98.1802 166.893 96.6048 163.59C96.6048 163.59 95.0641 159.301 94.0301 150.834C93.8228 149.687 93.8228 148.511 94.0301 147.364C94.8004 144.088 97.8887 137.586 98.6035 133.227C99.2073 129.5 99.9915 124.844 98.2218 123.296C89.9979 116.037 85.015 135.705 85.015 150.411Z" fill="#263238"/>
<path opacity="0.4" d="M94.4812 119.764C94.5347 120.016 94.6443 120.253 94.8019 120.458C94.9595 120.662 95.161 120.828 95.3916 120.944C95.6222 121.06 95.8759 121.123 96.1339 121.128C96.392 121.132 96.6478 121.079 96.8824 120.971C98.5619 120.152 103.232 121.714 105.079 121.318C105.079 121.318 105.079 118.813 105.079 118.119C105.079 117.425 98.8325 115.031 96.9934 114.878C93.8704 114.635 93.9121 117.286 94.4812 119.764Z" fill="black"/>
<path d="M117.82 101.116C115.843 100.005 113.407 100.422 111.449 101.421C109.753 102.427 108.208 103.671 106.862 105.113C105.391 106.543 103.975 107.889 102.525 109.277C102.431 109.37 102.316 109.438 102.19 109.477C102.064 109.516 101.931 109.524 101.801 109.501C101.671 109.478 101.549 109.424 101.444 109.344C101.339 109.264 101.255 109.16 101.199 109.041C101.033 108.687 100.873 108.347 100.672 107.979C100.608 107.877 100.568 107.762 100.552 107.642C100.537 107.523 100.547 107.401 100.581 107.285C100.748 106.758 100.928 106.231 101.081 105.71C100.479 103.842 100.339 101.855 100.674 99.9212C101.009 97.987 101.808 96.1631 103.003 94.6061C104.621 92.5241 107.737 92.5241 110.297 93.0585C111.579 93.3502 112.789 93.8961 113.856 94.6637C114.923 95.4314 115.825 96.4053 116.509 97.5278C116.78 97.4586 117.064 97.4579 117.335 97.5257C117.606 97.5936 117.857 97.7279 118.063 97.9165C118.513 98.2548 118.85 98.7219 119.028 99.2559C119.145 99.5033 119.205 99.7735 119.205 100.047C119.205 100.321 119.145 100.591 119.028 100.838C118.9 101.03 118.704 101.165 118.479 101.217C118.255 101.269 118.019 101.232 117.82 101.116Z" fill="#4582A4"/>
<path d="M114.08 96.6812C114.441 97.0836 114.715 97.5561 114.885 98.0692C113.883 98.0834 112.894 98.2981 111.977 98.7007C111.791 98.1949 111.519 97.7253 111.172 97.3127C112.178 97.0767 113.08 96.9102 114.08 96.6812Z" fill="white"/>
<path d="M101.789 203.293C97.4515 203.529 93.461 203.807 89.1096 203.661C88.6793 198.595 89.3386 191.426 91.1153 186.665C94.7033 184.75 98.902 185.971 102.747 187.325L101.789 203.293Z" fill="#4582A4"/>
<path opacity="0.2" d="M102.747 187.394L101.289 188.025L99.2559 201.947L89.0333 202.565L89.1096 203.731L101.789 203.363L102.747 187.394Z" fill="black"/>
<path opacity="0.2" d="M91.1152 186.686L90.4976 188.581L94.0578 189.906L99.9013 188.99L102.747 187.345C100.815 186.453 98.7447 185.899 96.6256 185.708C92.9544 185.298 91.1152 186.686 91.1152 186.686Z" fill="white"/>
</svg>
